<svg width="96" height="122" viewBox="0 0 96 122" fill="none" xmlns="http://www.w3.org/2000/svg">
<path d="M0.652717 93.9703L14.0782 100.788L13.8345 38.0612L0.530921 31.243L0.652717 93.9703Z" fill="#E3E3E3"/>
<path d="M13.7124 37.6067V100.789L68.7124 70.334L68.956 8.06122L13.7124 37.6067Z" fill="#8F8F8F"/>
<path d="M65.5305 68.0613L18.2578 93.9704V41.2431L65.5305 15.334V68.0613Z" fill="#676767"/>
<mask id="mask0_265_34671" style="mask-type:alpha" maskUnits="userSpaceOnUse" x="18" y="15" width="48" height="79">
<path d="M65.5305 68.0613L18.2578 93.9704V41.2431L65.5305 15.334V68.0613Z" fill="#DED3D3"/>
</mask>
<g mask="url(#mask0_265_34671)">
<ellipse cx="49.2829" cy="33.8917" rx="11.3636" ry="7.49114" transform="rotate(99.7616 49.2829 33.8917)" fill="#494949"/>
<path d="M57.772 23.8216L53.9186 46.2198L47.3562 45.0908L51.2096 22.6926L57.772 23.8216Z" fill="#494949"/>
<ellipse cx="55.0251" cy="34.8796" rx="11.3636" ry="7.49114" transform="rotate(99.7616 55.0251 34.8796)" fill="#B1B1B1"/>
<ellipse cx="55.0744" cy="34.8911" rx="6.36364" ry="9.75618" transform="rotate(9.74859 55.0744 34.8911)" fill="#464444"/>
<ellipse cx="48.3737" cy="60.076" rx="11.3636" ry="7.49114" transform="rotate(99.7616 48.3737 60.076)" fill="#494949"/>
<path d="M56.8628 50.0059L53.0094 72.4041L46.447 71.2751L50.3004 48.8769L56.8628 50.0059Z" fill="#494949"/>
<ellipse cx="54.1159" cy="61.0638" rx="11.3636" ry="7.49114" transform="rotate(99.7616 54.1159 61.0638)" fill="#B1B1B1"/>
<ellipse cx="54.1652" cy="61.0754" rx="6.36364" ry="9.75618" transform="rotate(9.74859 54.1652 61.0754)" fill="#464444"/>
<ellipse cx="28.9309" cy="45.5305" rx="11.3636" ry="7.49114" transform="rotate(99.7616 28.9309 45.5305)" fill="#494949"/>
<path d="M37.4199 35.4604L33.5665 57.8586L27.0042 56.7296L30.8575 34.3314L37.4199 35.4604Z" fill="#494949"/>
<ellipse cx="34.6731" cy="46.5184" rx="11.3636" ry="7.49114" transform="rotate(99.7616 34.6731 46.5184)" fill="#B1B1B1"/>
<ellipse cx="34.7223" cy="46.5299" rx="6.36364" ry="9.75618" transform="rotate(9.74859 34.7223 46.5299)" fill="#464444"/>
<ellipse cx="28.0217" cy="70.8056" rx="11.3636" ry="7.49114" transform="rotate(99.7616 28.0217 70.8056)" fill="#494949"/>
<path d="M36.5107 60.7355L32.6574 83.1338L26.095 82.0048L29.9484 59.6065L36.5107 60.7355Z" fill="#494949"/>
<ellipse cx="33.7639" cy="71.7935" rx="11.3636" ry="7.49114" transform="rotate(99.7616 33.7639 71.7935)" fill="#B1B1B1"/>
<ellipse cx="33.8131" cy="71.8051" rx="6.36364" ry="9.75618" transform="rotate(9.74859 33.8131 71.8051)" fill="#464444"/>
</g>
<path d="M55.8946 0.284367L0.530762 30.7885L13.7126 37.6067L69.5308 7.55709L55.8946 0.284367Z" fill="white" stroke="black" stroke-width="0.5"/>
<path d="M76.5308 71.6918L18.5308 102.284L19.0308 41.2843L76.5308 10.1918V71.6918Z" fill="#8F8F8F"/>
<path d="M63.0308 114.784L48.5308 121.284V56.7844L63.1647 50.2844L63.0308 114.784Z" fill="#B1B1B1"/>
<path d="M69.5667 7.28436L13.5308 37.7844L49.0308 56.7843L63.5308 49.7843L34.0308 34.2843L76.5667 10.7844L69.5667 7.28436Z" fill="white" stroke="black" stroke-width="0.5" stroke-linejoin="bevel"/>
<path d="M13.5308 102.401V37.2843L49.0308 56.7536V121.799L13.5308 102.401Z" fill="#E3E3E3"/>
<path d="M18.5308 54.0659V46.262L44.5308 61.0046V112.477L18.5308 98.439V91.3393L25.0586 94.5103V89.073L18.5308 86.0145V75.365L25.1556 77.8318V73.0987L18.5308 70.0402V59.3907L25.1556 62.5494V57.4202L18.5308 54.0659Z" fill="#E3E3E3" stroke="#A2A2A2" stroke-width="0.5"/>
<mask id="mask1_265_34671" style="mask-type:alpha" maskUnits="userSpaceOnUse" x="20" y="68" width="25" height="38">
<rect x="20.5308" y="68.2843" width="24" height="37" fill="#D9D9D9"/>
</mask>
<g mask="url(#mask1_265_34671)">
<path d="M29.7716 92.2408C30.8402 95.4789 32.6695 98.114 34.7509 99.7604C36.8342 101.408 39.1426 102.048 41.1982 101.37C43.2537 100.692 44.7279 98.8035 45.4213 96.2393C46.114 93.6775 46.0157 90.4712 44.9472 87.2331C43.8787 83.995 42.0494 81.3599 39.968 79.7135C37.8847 78.0656 35.5763 77.4256 33.5207 78.1039C31.4652 78.7822 29.991 80.6704 29.2976 83.2346C28.6049 85.7964 28.7031 89.0027 29.7716 92.2408Z" fill="#E3E3E3" stroke="black" stroke-width="0.5"/>
<mask id="path-29-inside-1_265_34671" fill="white">
<path d="M26.4863 80.1618L34.3204 103.903L41.2762 101.607L33.4421 77.8665L26.4863 80.1618Z"/>
</mask>
<path d="M26.4863 80.1618L34.3204 103.903L41.2762 101.607L33.4421 77.8665L26.4863 80.1618Z" fill="#E3E3E3"/>
<path d="M34.3204 103.903L34.1638 103.428L41.1195 101.133L41.2762 101.607L41.4329 102.082L34.4771 104.377L34.3204 103.903ZM33.4421 77.8665L33.5988 78.3413L26.643 80.6366L26.4863 80.1618L26.3296 79.687L33.2854 77.3917L33.4421 77.8665Z" fill="black" mask="url(#path-29-inside-1_265_34671)"/>
<path d="M23.6852 94.2492C24.7537 97.4872 26.5831 100.122 28.6645 101.769C30.7478 103.417 33.0562 104.057 35.1117 103.378C37.1673 102.7 38.6415 100.812 39.3348 98.2477C40.0276 95.6859 39.9293 92.4795 38.8608 89.2415C37.7923 86.0034 35.9629 83.3683 33.8816 81.7219C31.7983 80.0739 29.4898 79.434 27.4343 80.1123C25.3788 80.7906 23.9046 82.6787 23.2112 85.2429C22.5185 87.8048 22.6167 91.0111 23.6852 94.2492Z" fill="#E3E3E3" stroke="black" stroke-width="0.5"/>
</g>
<path d="M74.5762 44.2844L61.5762 51.2844L61.5767 115.284L74.5767 109.284L74.5762 44.2844Z" fill="#B1B1B1"/>
<path d="M61.4371 50.6138L73.9256 43.879L44.9545 28.4382L32.4651 35.1625L61.4371 50.6138Z" fill="white" stroke="black" stroke-width="0.5"/>
</svg>
