<svg width="63" height="82" viewBox="0 0 63 82" fill="none" xmlns="http://www.w3.org/2000/svg">
<path d="M0.259772 17.5L30.2598 33.5551V75.0129L0.259772 59.1935V17.5Z" fill="#006DDA"/>
<path d="M61.5 16.5L30.0009 33.0968V75L61.5 57.5V16.5Z" fill="#005FBE"/>
<path d="M61.4766 16.1885L29.999 33.5039L0.522461 17.6006L32 0.28418L61.4766 16.1885Z" fill="#0080FF" stroke="black" stroke-width="0.5"/>
<path d="M29.5 10.8213C32.9098 10.8213 35.9854 11.7328 38.2012 13.1934C40.4189 14.6553 41.75 16.647 41.75 18.8115C41.75 20.9761 40.4189 22.9677 38.2012 24.4297C35.9854 25.8903 32.9098 26.8018 29.5 26.8018C26.0902 26.8018 23.0146 25.8903 20.7988 24.4297C18.5811 22.9677 17.25 20.9761 17.25 18.8115C17.25 16.647 18.5811 14.6553 20.7988 13.1934C23.0146 11.7328 26.0902 10.8213 29.5 10.8213Z" fill="#005FBE" stroke="black" stroke-width="0.5"/>
<mask id="path-5-inside-1_72_16273" fill="white">
<path d="M17 11.4868H42V18.8115H17V11.4868Z"/>
</mask>
<path d="M17 11.4868H42V18.8115H17V11.4868Z" fill="#005FBE"/>
<path d="M42 11.4868H41.5V18.8115H42H42.5V11.4868H42ZM17 18.8115H17.5V11.4868H17H16.5V18.8115H17Z" fill="black" mask="url(#path-5-inside-1_72_16273)"/>
<path d="M29.5 4.41211C32.9098 4.41211 35.9854 5.32357 38.2012 6.78418C40.4189 8.24616 41.75 10.2378 41.75 12.4023C41.75 14.5669 40.4189 16.5585 38.2012 18.0205C35.9854 19.4811 32.9098 20.3926 29.5 20.3926C26.0902 20.3926 23.0146 19.4811 20.7988 18.0205C18.5811 16.5585 17.25 14.5669 17.25 12.4023C17.25 10.2378 18.5811 8.24616 20.7988 6.78418C23.0146 5.32357 26.0902 4.41211 29.5 4.41211Z" fill="#169AFF" stroke="black" stroke-width="0.5"/>
<path d="M52.0448 46.4444C50.9762 49.6825 49.1469 52.3176 47.0655 53.964C44.9822 55.6119 42.6738 56.2519 40.6183 55.5736C38.5627 54.8953 37.0885 53.0071 36.3951 50.4429C35.7024 47.8811 35.8007 44.6748 36.8692 41.4367C37.9377 38.1986 39.767 35.5635 41.8484 33.9171C43.9317 32.2692 46.2401 31.6293 48.2957 32.3076C50.3512 32.9859 51.8254 34.874 52.5188 37.4382C53.2115 40 53.1133 43.2064 52.0448 46.4444Z" fill="#006DDA" stroke="black" stroke-width="0.5"/>
<mask id="path-9-inside-2_72_16273" fill="white">
<path d="M55.3301 34.3652L47.496 58.1061L40.5402 55.8108L48.3743 32.0699L55.3301 34.3652Z"/>
</mask>
<path d="M55.3301 34.3652L47.496 58.1061L40.5402 55.8108L48.3743 32.0699L55.3301 34.3652Z" fill="#006DDA"/>
<path d="M47.496 58.1061L47.6527 57.6312L40.6969 55.336L40.5402 55.8108L40.3835 56.2856L47.3393 58.5809L47.496 58.1061ZM48.3743 32.0699L48.2177 32.5448L55.1734 34.8401L55.3301 34.3652L55.4868 33.8904L48.531 31.5951L48.3743 32.0699Z" fill="black" mask="url(#path-9-inside-2_72_16273)"/>
<path d="M58.1307 48.4527C57.0622 51.6908 55.2328 54.3259 53.1515 55.9723C51.0682 57.6202 48.7597 58.2602 46.7042 57.5819C44.6486 56.9036 43.1745 55.0154 42.4811 52.4512C41.7884 49.8894 41.8866 46.6831 42.9551 43.445C44.0236 40.2069 45.853 37.5718 47.9343 35.9254C50.0177 34.2775 52.3261 33.6376 54.3816 34.3159C56.4372 34.9942 57.9114 36.8823 58.6047 39.4465C59.2974 42.0083 59.1992 45.2147 58.1307 48.4527Z" fill="#005FBE" stroke="black" stroke-width="0.5"/>
<path d="M56.2935 48.2386C55.5466 50.5019 54.268 52.3405 52.8175 53.4869C51.3651 54.6347 49.7672 55.0717 48.3526 54.605C46.9378 54.1382 45.9141 52.836 45.43 51.0491C44.9466 49.2646 45.0125 47.0259 45.7594 44.7625C46.5063 42.4991 47.7858 40.6607 49.2363 39.5144C50.6886 38.3669 52.2863 37.9305 53.7009 38.3973C55.1154 38.8641 56.1397 40.1656 56.6238 41.9522C57.1072 43.7367 57.0403 45.9752 56.2935 48.2386Z" fill="#00264C" stroke="black" stroke-width="0.5"/>
</svg>
