<svg preserveAspectRatio="none" width="100%" height="100%" overflow="visible" style="display: block;" viewBox="0 0 123 122" fill="none" xmlns="http://www.w3.org/2000/svg">
<g id="Group 7">
<path id="Vector 1" d="M121.765 52.2837L61.1067 87.3047L0.448522 52.2837L61.1067 17.2626L121.765 52.2837Z" stroke="var(--stroke-0, black)" stroke-width="0.224245"/>
<path id="Vector 3" d="M61.2188 35.4213L0.448522 35.2411V85.8261L61.2188 121.575V35.4213Z" fill="var(--fill-0, #FFAE00)"/>
<path id="Vector 5" d="M61.2188 35.4213L121.989 35.2411V85.8261L61.2188 121.575V35.4213Z" fill="var(--fill-0, #D79300)"/>
<path id="Vector 2" d="M121.765 35.28L61.1067 70.301L0.448489 35.28L61.1067 0.258935L121.765 35.28Z" fill="var(--fill-0, #FFCD62)" stroke="var(--stroke-0, #D79300)" stroke-width="0.448489"/>
<g id="Group 1">
<path id="Ellipse 9" d="M32.5159 26.2623C35.963 26.2623 39.079 27.2606 41.3304 28.8687C43.5819 30.477 44.9612 32.6884 44.9612 35.1197C44.9612 37.551 43.5819 39.7624 41.3304 41.3707C39.079 42.9788 35.963 43.9771 32.5159 43.9771C29.0689 43.9771 25.9528 42.9788 23.7015 41.3707C21.45 39.7624 20.0706 37.5509 20.0706 35.1197C20.0706 32.6885 21.45 30.477 23.7015 28.8687C25.9528 27.2606 29.0689 26.2623 32.5159 26.2623Z" fill="var(--fill-0, #D79300)" stroke="var(--stroke-0, black)" stroke-width="0.224245"/>
<rect id="Rectangle 2" x="19.9583" y="28.8409" width="25.1154" height="6.27885" fill="var(--fill-0, #D79300)"/>
<ellipse id="Ellipse 10" cx="32.516" cy="28.841" rx="12.5577" ry="8.96979" fill="var(--fill-0, #FFDE96)"/>
</g>
<g id="Group 2">
<path id="Ellipse 9_2" d="M61.219 40.511C64.666 40.511 67.782 41.5093 70.0334 43.1175C72.285 44.7258 73.6643 46.9372 73.6643 49.3685C73.6643 51.7997 72.285 54.0111 70.0334 55.6194C67.782 57.2276 64.666 58.2259 61.219 58.2259C57.772 58.2259 54.6559 57.2276 52.4045 55.6194C50.1531 54.0112 48.7737 51.7997 48.7737 49.3685C48.7737 46.9372 50.1531 44.7258 52.4045 43.1175C54.6559 41.5094 57.772 40.5111 61.219 40.511Z" fill="var(--fill-0, #D79300)" stroke="var(--stroke-0, black)" stroke-width="0.224245"/>
<rect id="Rectangle 2_2" x="48.6614" y="43.0897" width="25.1154" height="6.27885" fill="var(--fill-0, #D79300)"/>
<ellipse id="Ellipse 10_2" cx="61.2188" cy="43.0896" rx="12.5577" ry="8.96979" fill="var(--fill-0, #FFDE96)"/>
</g>
<g id="Group 3">
<path id="Ellipse 9_3" d="M89.9221 26.2623C93.3691 26.2623 96.4851 27.2606 98.7365 28.8687C100.988 30.477 102.367 32.6884 102.367 35.1197C102.367 37.551 100.988 39.7624 98.7365 41.3707C96.4851 42.9788 93.3691 43.9771 89.9221 43.9771C86.4751 43.9771 83.359 42.9788 81.1076 41.3707C78.8562 39.7624 77.4768 37.5509 77.4768 35.1197C77.4768 32.6885 78.8561 30.477 81.1076 28.8687C83.359 27.2606 86.4751 26.2623 89.9221 26.2623Z" fill="var(--fill-0, #D79300)" stroke="var(--stroke-0, black)" stroke-width="0.224245"/>
<rect id="Rectangle 2_3" x="77.3645" y="28.8409" width="25.1154" height="6.27885" fill="var(--fill-0, #D79300)"/>
<ellipse id="Ellipse 10_3" cx="89.9222" cy="28.841" rx="12.5577" ry="8.96979" fill="var(--fill-0, #FFDE96)"/>
</g>
<g id="Group 4">
<ellipse id="Ellipse 9_4" cx="61.2191" cy="18.8712" rx="12.5577" ry="8.96979" fill="var(--fill-0, #D79300)"/>
<rect id="Rectangle 2_4" x="48.6614" y="12.5923" width="25.1154" height="6.27885" fill="var(--fill-0, #D79300)"/>
<ellipse id="Ellipse 10_4" cx="61.2188" cy="12.5923" rx="12.5577" ry="8.96979" fill="var(--fill-0, #FFDE96)"/>
</g>
</g>
</svg>
