<svg width="46" height="100" viewBox="0 0 46 100" fill="none" xmlns="http://www.w3.org/2000/svg">
<path d="M42.5664 14.4985L13.0673 30.3505L13.0674 97.7538L42.5664 81.954L42.5664 14.4985Z" fill="#B1B1B1"/>
<path d="M0.0664062 23.4985L13.0664 30.4985V97.9985L0.0664062 90.9985V23.4985Z" fill="#E3E3E3"/>
<path d="M42.5664 14.765L13.0665 30.4986L0.0665357 23.4882L29.5664 7.76511L42.5664 14.765Z" fill="white"/>
<path d="M35.3963 42.9566C34.3278 46.1947 32.4985 48.8298 30.4171 50.4762C28.3338 52.1241 26.0254 52.7641 23.9698 52.0858C21.9143 51.4075 20.4401 49.5193 19.7467 46.9552C19.054 44.3933 19.1522 41.187 20.2207 37.9489C21.2893 34.7108 23.1186 32.0757 25.2 30.4293C27.2833 28.7814 29.5917 28.1415 31.6472 28.8198C33.7028 29.4981 35.177 31.3862 35.8704 33.9504C36.5631 36.5122 36.4648 39.7186 35.3963 42.9566Z" fill="#D9D9D9" stroke="black" stroke-width="0.5"/>
<mask id="path-5-inside-1_72_16221" fill="white">
<path d="M38.6816 30.8774L30.8475 54.6183L23.8918 52.323L31.7259 28.5822L38.6816 30.8774Z"/>
</mask>
<path d="M38.6816 30.8774L30.8475 54.6183L23.8918 52.323L31.7259 28.5822L38.6816 30.8774Z" fill="#D9D9D9"/>
<path d="M30.8475 54.6183L31.0042 54.1434L24.0485 51.8482L23.8918 52.323L23.7351 52.7978L30.6909 55.0931L30.8475 54.6183ZM31.7259 28.5822L31.5692 29.057L38.525 31.3523L38.6816 30.8774L38.8383 30.4026L31.8826 28.1073L31.7259 28.5822Z" fill="black" mask="url(#path-5-inside-1_72_16221)"/>
<path d="M41.4823 44.9649C40.4137 48.203 38.5844 50.8381 36.503 52.4845C34.4197 54.1324 32.1113 54.7724 30.0558 54.0941C28.0002 53.4158 26.526 51.5276 25.8326 48.9635C25.1399 46.4016 25.2382 43.1953 26.3067 39.9572C27.3752 36.7191 29.2045 34.084 31.2859 32.4376C33.3692 30.7897 35.6776 30.1498 37.7332 30.8281C39.7887 31.5064 41.2629 33.3945 41.9563 35.9587C42.649 38.5205 42.5508 41.7269 41.4823 44.9649Z" fill="#B1B1B1" stroke="black" stroke-width="0.5"/>
<path d="M35.3963 73.9566C34.3278 77.1947 32.4985 79.8298 30.4171 81.4762C28.3338 83.1241 26.0254 83.7641 23.9698 83.0858C21.9143 82.4075 20.4401 80.5193 19.7467 77.9552C19.054 75.3933 19.1522 72.187 20.2207 68.9489C21.2893 65.7108 23.1186 63.0757 25.2 61.4293C27.2833 59.7814 29.5917 59.1415 31.6472 59.8198C33.7028 60.4981 35.177 62.3862 35.8704 64.9504C36.5631 67.5122 36.4648 70.7186 35.3963 73.9566Z" fill="#D9D9D9" stroke="black" stroke-width="0.5"/>
<mask id="path-9-inside-2_72_16221" fill="white">
<path d="M38.6816 61.8774L30.8475 85.6183L23.8918 83.323L31.7259 59.5822L38.6816 61.8774Z"/>
</mask>
<path d="M38.6816 61.8774L30.8475 85.6183L23.8918 83.323L31.7259 59.5822L38.6816 61.8774Z" fill="#D9D9D9"/>
<path d="M30.8475 85.6183L31.0042 85.1434L24.0485 82.8482L23.8918 83.323L23.7351 83.7978L30.6909 86.0931L30.8475 85.6183ZM31.7259 59.5822L31.5692 60.057L38.525 62.3523L38.6816 61.8774L38.8383 61.4026L31.8826 59.1073L31.7259 59.5822Z" fill="black" mask="url(#path-9-inside-2_72_16221)"/>
<path d="M41.4823 75.9649C40.4137 79.203 38.5844 81.8381 36.503 83.4845C34.4197 85.1324 32.1113 85.7724 30.0558 85.0941C28.0002 84.4158 26.526 82.5276 25.8326 79.9635C25.1399 77.4016 25.2382 74.1953 26.3067 70.9572C27.3752 67.7191 29.2045 65.084 31.2859 63.4376C33.3692 61.7897 35.6776 61.1498 37.7332 61.8281C39.7887 62.5064 41.2629 64.3945 41.9563 66.9587C42.649 69.5205 42.5508 72.7269 41.4823 75.9649Z" fill="#B1B1B1" stroke="black" stroke-width="0.5"/>
</svg>
