<svg preserveAspectRatio="none" width="100%" height="100%" overflow="visible" style="display: block;" viewBox="0 0 123 122" fill="none" xmlns="http://www.w3.org/2000/svg">
<g id="Group 7">
<path id="Vector 1" d="M121.765 52.2837L61.1067 87.3047L0.448522 52.2837L61.1067 17.2626L121.765 52.2837Z" stroke="var(--stroke-0, black)" stroke-width="0.224245"/>
<path id="Vector 3" d="M61.2188 35.4213L0.448522 35.2411V85.8261L61.2188 121.575V35.4213Z" fill="var(--fill-0, #4A4A4A)"/>
<path id="Vector 5" d="M61.2188 35.4213L121.989 35.2411V85.8261L61.2188 121.575V35.4213Z" fill="var(--fill-0, #333537)"/>
<path id="Vector 2" d="M121.765 35.28L61.1067 70.301L0.448489 35.28L61.1067 0.258935L121.765 35.28Z" fill="var(--fill-0, #707070)" stroke="var(--stroke-0, black)" stroke-width="0.448489"/>
<g id="Group 1">
<path id="Ellipse 9" d="M32.5155 25.2623C35.9625 25.2623 39.0785 26.2606 41.3299 27.8687C43.5815 29.477 44.9608 31.6884 44.9608 34.1197C44.9608 36.551 43.5815 38.7624 41.3299 40.3707C39.0785 41.9788 35.9625 42.9771 32.5155 42.9771C29.0685 42.9771 25.9524 41.9788 23.701 40.3707C21.4496 38.7624 20.0702 36.5509 20.0702 34.1197C20.0702 31.6885 21.4495 29.477 23.701 27.8687C25.9524 26.2606 29.0685 25.2623 32.5155 25.2623Z" fill="var(--fill-0, #333537)" stroke="var(--stroke-0, black)" stroke-width="0.224245"/>
<rect id="Rectangle 2" x="19.9579" y="27.8409" width="25.1154" height="6.27885" fill="var(--fill-0, #333537)"/>
<ellipse id="Ellipse 10" cx="32.5155" cy="27.841" rx="12.5577" ry="8.96979" fill="var(--fill-0, #8D8D8D)"/>
</g>
<g id="Group 2">
<path id="Ellipse 9_2" d="M61.219 40.511C64.666 40.511 67.782 41.5093 70.0334 43.1175C72.285 44.7258 73.6643 46.9372 73.6643 49.3685C73.6643 51.7997 72.285 54.0111 70.0334 55.6194C67.782 57.2276 64.666 58.2259 61.219 58.2259C57.772 58.2259 54.6559 57.2276 52.4045 55.6194C50.1531 54.0112 48.7737 51.7997 48.7737 49.3685C48.7737 46.9372 50.1531 44.7258 52.4045 43.1175C54.6559 41.5094 57.772 40.5111 61.219 40.511Z" fill="var(--fill-0, #333537)" stroke="var(--stroke-0, black)" stroke-width="0.224245"/>
<rect id="Rectangle 2_2" x="48.6614" y="43.0897" width="25.1154" height="6.27885" fill="var(--fill-0, #333537)"/>
<ellipse id="Ellipse 10_2" cx="61.2188" cy="43.0896" rx="12.5577" ry="8.96979" fill="var(--fill-0, #8D8D8D)"/>
</g>
<g id="Group 3">
<path id="Ellipse 9_3" d="M89.922 25.2623C93.3691 25.2623 96.4851 26.2606 98.7365 27.8687C100.988 29.477 102.367 31.6884 102.367 34.1197C102.367 36.551 100.988 38.7624 98.7365 40.3707C96.4851 41.9788 93.3691 42.9771 89.922 42.9771C86.475 42.9771 83.359 41.9788 81.1076 40.3707C78.8561 38.7624 77.4767 36.5509 77.4767 34.1197C77.4767 31.6885 78.8561 29.477 81.1076 27.8687C83.359 26.2606 86.475 25.2623 89.922 25.2623Z" fill="var(--fill-0, #333537)" stroke="var(--stroke-0, black)" stroke-width="0.224245"/>
<rect id="Rectangle 2_3" x="77.3644" y="27.8409" width="25.1154" height="6.27885" fill="var(--fill-0, #333537)"/>
<ellipse id="Ellipse 10_3" cx="89.9222" cy="27.841" rx="12.5577" ry="8.96979" fill="var(--fill-0, #8D8D8D)"/>
</g>
<g id="Group 4">
<path id="Ellipse 9_4" d="M61.219 10.0137C64.666 10.0137 67.782 11.012 70.0334 12.6201C72.285 14.2284 73.6643 16.4398 73.6643 18.8711C73.6643 21.3024 72.285 23.5138 70.0334 25.1221C67.782 26.7302 64.666 27.7285 61.219 27.7285C57.772 27.7285 54.6559 26.7302 52.4045 25.1221C50.1531 23.5138 48.7737 21.3023 48.7737 18.8711C48.7737 16.4399 50.1531 14.2284 52.4045 12.6201C54.6559 11.012 57.772 10.0137 61.219 10.0137Z" fill="var(--fill-0, #333537)" stroke="var(--stroke-0, black)" stroke-width="0.224245"/>
<rect id="Rectangle 2_4" x="48.6614" y="12.5923" width="25.1154" height="6.27885" fill="var(--fill-0, #333537)"/>
<ellipse id="Ellipse 10_4" cx="61.2188" cy="12.5923" rx="12.5577" ry="8.96979" fill="var(--fill-0, #8D8D8D)"/>
</g>
</g>
</svg>
