<svg width="437" height="266" viewBox="0 0 437 266" fill="none" xmlns="http://www.w3.org/2000/svg">
<path d="M424 123.5C424 94.6459 402.727 67.1333 365.266 46.459C328.034 25.9113 276.157 13 218.5 13C160.843 13 108.966 25.9114 71.7344 46.459C34.2733 67.1333 13 94.6459 13 123.5C13 152.354 34.2733 179.867 71.7344 200.541C108.966 221.089 160.843 234 218.5 234C230.225 234 241.719 233.466 252.906 232.44L254.094 245.386C242.51 246.448 230.619 247 218.5 247C159.073 247 104.95 233.72 65.4531 211.922C26.1853 190.25 0 159.263 0 123.5C0 87.7368 26.1853 56.7495 65.4531 35.0781C104.95 13.2803 159.073 0 218.5 0C277.927 0 332.05 13.2803 371.547 35.0781C410.815 56.7495 437 87.7368 437 123.5C437 147.441 425.19 169.329 405.705 187.572C386.241 205.796 358.81 220.718 326.477 231.04L322.523 218.655C353.557 208.748 379.126 194.649 396.82 178.083C414.493 161.537 424 142.865 424 123.5Z" fill="#1391F6"/>
<path d="M280.5 235.5L238.259 265.89L226.5 221.5L280.5 235.5Z" fill="#1391F6"/>
</svg>
