<svg width="1266" height="271" viewBox="0 0 1266 271" fill="none" xmlns="http://www.w3.org/2000/svg">
<path d="M1233.88 222.512C1233.88 217.194 1232.02 212.635 1228.3 208.837L1227.57 208.107C1223.9 204.51 1219.51 202.654 1214.41 202.538L1213.9 202.533C1208.32 202.533 1203.59 204.512 1199.72 208.472L1199.36 208.837C1195.73 212.635 1193.92 217.194 1193.92 222.512C1193.92 228.092 1195.85 232.817 1199.72 236.687C1203.47 240.436 1208.02 242.37 1213.38 242.487L1213.9 242.493C1219.39 242.493 1224.07 240.557 1227.94 236.687C1231.9 232.817 1233.88 228.092 1233.88 222.512ZM1234.59 36.8568L1227.56 188.927H1200.1L1192.79 36.8568H1234.59ZM1195.94 39.8568L1202.96 185.927H1224.7L1231.45 39.8568H1195.94ZM1236.88 222.512C1236.88 228.881 1234.58 234.373 1230.06 238.808V238.809C1225.62 243.243 1220.18 245.493 1213.9 245.493C1207.54 245.493 1202.04 243.254 1197.6 238.809C1193.15 234.364 1190.92 228.87 1190.92 222.512C1190.92 216.229 1193.17 210.785 1197.6 206.351C1202.03 201.825 1207.53 199.533 1213.9 199.533C1220 199.533 1225.31 201.701 1229.66 205.957L1230.45 206.745C1234.71 211.097 1236.88 216.404 1236.88 222.512Z" fill="black"/>
<path d="M1088.24 201.857V126.693H1054.35V92.3422H1071.12V95.3422H1057.35V123.693H1091.24V201.857V202.654C1091.32 210.836 1092.67 217.455 1095.29 222.512C1097.99 227.732 1101.54 231.692 1105.95 234.392C1110.36 237.092 1115.22 238.937 1120.53 239.927C1125.51 240.855 1130.41 241.349 1135.23 241.407L1136.19 241.413C1140.33 241.412 1144.02 241.097 1147.26 240.467C1150.5 239.837 1152.98 239.208 1154.69 238.578V210.767C1153.43 211.307 1151.49 211.847 1148.88 212.387C1146.36 212.927 1143.66 213.198 1140.78 213.198V210.198C1143.47 210.198 1145.96 209.944 1148.25 209.454L1148.26 209.452L1148.27 209.45C1150.83 208.92 1152.53 208.428 1153.5 208.01L1157.69 206.218V240.669L1155.72 241.392C1153.79 242.105 1151.13 242.772 1147.83 243.413C1144.36 244.087 1140.48 244.412 1136.19 244.413C1130.87 244.413 1125.46 243.898 1119.98 242.876C1114.33 241.822 1109.12 239.85 1104.38 236.951C1099.45 233.927 1095.54 229.529 1092.62 223.891C1089.62 218.096 1088.24 210.684 1088.24 201.857ZM1126.88 191.057V123.693H1169.54V95.3422H1126.88V48.0922H1091.24V70.9076L1091.23 73.0424C1091.18 77.8852 1090.96 81.7635 1090.56 84.6772L1090.49 85.2748C1090.1 88.2121 1089.31 90.3981 1088.13 91.8324L1087.89 92.1127C1086.62 93.4839 1084.72 94.3802 1082.19 94.8022C1079.49 95.1622 1075.8 95.3422 1071.12 95.3422V92.3422C1075.72 92.3422 1079.24 92.1638 1081.75 91.8334C1083.97 91.4545 1085.17 90.7087 1085.82 89.9252C1086.54 89.0494 1087.25 87.3438 1087.58 84.3461V84.3109L1087.59 84.2758C1088.01 81.1415 1088.24 76.7058 1088.24 70.9076V45.0922H1129.88V92.3422H1172.54V126.693H1129.88V191.057C1129.88 197.516 1130.67 202.448 1132.09 206.008C1132.64 207.379 1133.52 208.35 1134.79 209.027C1136.14 209.738 1138.07 210.198 1140.78 210.198V213.198L1140.22 213.192C1134.7 213.073 1131.11 211.174 1129.46 207.496L1129.31 207.122C1127.69 203.072 1126.88 197.717 1126.88 191.057Z" fill="black"/>
<path d="M1035.13 95.3422H1000.03V238.712H1035.13V95.3422ZM1038.91 51.1977C1038.91 45.8792 1036.92 41.7005 1032.95 38.6625L1032.56 38.3725C1028.46 35.4081 1023.69 33.8792 1018.24 33.7865L1017.71 33.7826C1011.95 33.7826 1006.91 35.3125 1002.59 38.3725C998.36 41.4325 996.25 45.7077 996.25 51.1977V51.7172C996.38 57.0491 998.49 61.2409 1002.59 64.2924C1006.78 67.2567 1011.64 68.7847 1017.17 68.8773L1017.71 68.8822C1023.2 68.8822 1028.02 67.4463 1032.16 64.5746L1032.56 64.2924C1036.66 61.2409 1038.77 57.0491 1038.9 51.7172L1038.91 51.1977ZM1038.13 241.712H997.03V92.3422H1038.13V241.712ZM1041.91 51.1977C1041.91 57.6611 1039.39 62.9453 1034.35 66.6986L1034.34 66.7104L1034.32 66.7231C1029.53 70.1854 1023.96 71.8822 1017.71 71.8822C1011.39 71.8822 1005.73 70.1916 1000.86 66.7406L1000.83 66.7201L1000.8 66.6986C995.76 62.9453 993.25 57.6611 993.25 51.1977C993.25 44.8037 995.78 39.5993 1000.83 35.9418L1000.85 35.933L1000.86 35.9242C1005.73 32.4733 1011.39 30.7826 1017.71 30.7826C1023.96 30.7826 1029.53 32.4795 1034.32 35.9418C1039.38 39.5993 1041.91 44.8036 1041.91 51.1977Z" fill="black"/>
<path d="M898.26 27.7074H862.62V112.319C858.75 108.231 854.36 104.725 849.47 101.803L848.58 101.283C839.34 95.877 829.29 93.0893 818.45 92.9203L817.4 92.9125C805.88 92.9125 795.08 95.7474 785 101.417C775.01 107.087 766.91 115.412 760.7 126.392C754.58 137.372 751.51 150.782 751.51 166.622L751.52 168.142C751.71 183.768 754.72 196.986 760.56 207.797C766.59 218.957 774.6 227.417 784.59 233.177C794.35 238.67 804.92 241.503 816.29 241.674L817.4 241.682C828.73 241.682 839.01 238.895 848.23 233.321L849.12 232.772C854.17 229.595 858.67 225.814 862.62 221.428V238.712H898.26V27.7074ZM788.24 166.622C788.24 151.592 791.88 140.612 799.17 133.682C806.46 126.662 815.28 123.153 825.63 123.153L826.22 123.157C832.3 123.249 838.04 124.778 843.45 127.743C849.12 130.713 853.71 134.853 857.22 140.163C860.81 145.456 862.61 151.644 862.62 158.727V173.507C862.62 180.707 860.87 187.097 857.36 192.677L857.03 193.189C853.65 198.436 849.26 202.586 843.86 205.637L843.33 205.928C837.89 208.884 831.99 210.363 825.63 210.363V207.363C831.7 207.363 837.26 205.914 842.38 203.025C847.52 200.124 851.65 196.159 854.81 191.091L854.82 191.079C857.9 186.18 859.52 180.56 859.62 174.132V173.507V158.792V158.178C859.51 151.865 857.86 146.457 854.74 141.846L854.72 141.817C851.49 136.932 847.28 133.136 842.06 130.4L842.03 130.386L842.01 130.372C836.87 127.552 831.42 126.153 825.63 126.153C816.04 126.153 807.97 129.375 801.25 135.843L801.24 135.857C794.78 141.992 791.24 152.009 791.24 166.622C791.24 181.132 794.78 191.222 801.26 197.549C807.98 204.103 816.05 207.363 825.63 207.363V210.363L824.66 210.352C815.05 210.144 806.78 206.811 799.86 200.354L799.17 199.698C792.11 192.81 788.47 182.247 788.25 168.011L788.24 166.622ZM901.26 241.712H859.62V228.633C856.86 231.086 853.9 233.314 850.72 235.312C840.77 241.567 829.63 244.682 817.4 244.682C805.1 244.682 793.66 241.72 783.12 235.792L783.11 235.785L783.09 235.776C772.57 229.711 764.19 220.822 757.92 209.223C751.6 197.518 748.51 183.272 748.51 166.622C748.51 150.402 751.65 136.46 758.07 124.932L758.08 124.923V124.915C764.53 113.511 773.01 104.772 783.51 98.808L783.52 98.8022C794.05 92.8807 805.36 89.9125 817.4 89.9125C829.16 89.9126 840.07 92.8355 850.08 98.682C853.49 100.646 856.67 102.875 859.62 105.365V24.7074H901.26V241.712Z" fill="black"/>
<path d="M722.68 95.3422H687.58V238.712H722.68V95.3422ZM726.46 51.1977C726.46 45.8792 724.47 41.7005 720.5 38.6625L720.11 38.3725C716.01 35.4081 711.24 33.8792 705.79 33.7865L705.26 33.7826C699.5 33.7826 694.46 35.3125 690.14 38.3725C685.91 41.4325 683.8 45.7077 683.8 51.1977V51.7172C683.93 57.0491 686.04 61.2409 690.14 64.2924C694.33 67.2567 699.19 68.7847 704.72 68.8773L705.26 68.8822C710.75 68.8822 715.57 67.4463 719.71 64.5746L720.11 64.2924C724.21 61.2409 726.32 57.0491 726.45 51.7172L726.46 51.1977ZM725.68 241.712H684.58V92.3422H725.68V241.712ZM729.46 51.1977C729.46 57.6611 726.94 62.9453 721.9 66.6986L721.89 66.7104L721.87 66.7231C717.08 70.1854 711.5 71.8822 705.26 71.8822C698.94 71.8822 693.28 70.1916 688.41 66.7406L688.38 66.7201L688.35 66.6986C683.31 62.9453 680.8 57.6611 680.8 51.1977C680.8 44.8037 683.33 39.5993 688.38 35.9418L688.39 35.933L688.41 35.9242C693.28 32.4733 698.94 30.7826 705.26 30.7826C711.5 30.7826 717.08 32.4795 721.87 35.9418C726.93 39.5993 729.46 44.8036 729.46 51.1977Z" fill="black"/>
<path d="M653.309 27.7074H617.669V112.319C613.795 108.231 609.412 104.725 604.518 101.803L603.629 101.283C594.387 95.877 584.342 93.0893 573.495 92.9203L572.443 92.9125C560.923 92.9125 550.124 95.7474 540.044 101.417C530.054 107.087 521.954 115.412 515.744 126.392C509.624 137.372 506.562 150.782 506.562 166.622L506.572 168.142C506.755 183.768 509.766 196.986 515.607 207.797C521.637 218.957 529.648 227.417 539.638 233.177C549.403 238.67 559.971 241.503 571.341 241.674L572.443 241.682C583.777 241.682 594.057 238.895 603.279 233.321L604.169 232.772C609.222 229.595 613.722 225.814 617.669 221.428V238.712H653.309V27.7074ZM543.284 166.622C543.284 151.592 546.929 140.612 554.219 133.682C561.509 126.662 570.329 123.153 580.679 123.153L581.268 123.157C587.349 123.249 593.093 124.778 598.499 127.743C604.169 130.713 608.758 134.853 612.268 140.163C615.857 145.456 617.658 151.644 617.669 158.727V173.507C617.669 180.707 615.914 187.097 612.404 192.677L612.08 193.189C608.702 198.436 604.31 202.586 598.904 205.637L598.379 205.928C592.943 208.884 587.043 210.363 580.679 210.363V207.363C586.746 207.363 592.311 205.914 597.429 203.025C602.567 200.124 606.7 196.159 609.857 191.091L609.864 191.079C612.946 186.18 614.566 180.56 614.664 174.132L614.669 173.507V158.792L614.664 158.178C614.564 151.865 612.912 146.457 609.786 141.846L609.767 141.817C606.538 136.932 602.33 133.136 597.106 130.4L597.081 130.386L597.057 130.372C591.914 127.552 586.469 126.153 580.679 126.153C571.085 126.153 563.016 129.375 556.299 135.843L556.286 135.857C549.833 141.992 546.284 152.009 546.284 166.622C546.284 181.132 549.826 191.222 556.312 197.549C563.032 204.103 571.097 207.363 580.679 207.363V210.363L579.713 210.352C570.1 210.144 561.83 206.811 554.906 200.354L554.219 199.698C547.157 192.81 543.515 182.247 543.294 168.011L543.284 166.622ZM656.309 241.712H614.669V228.633C611.911 231.086 608.944 233.314 605.766 235.312C595.814 241.567 584.679 244.682 572.443 244.682C560.149 244.682 548.706 241.72 538.168 235.792L538.154 235.785L538.141 235.776C527.622 229.711 519.236 220.822 512.969 209.223C506.644 197.518 503.562 183.272 503.562 166.622C503.562 150.402 506.697 136.46 513.122 124.932L513.128 124.923L513.133 124.915C519.583 113.511 528.056 104.772 538.562 98.808L538.573 98.8022C549.1 92.8807 560.406 89.9125 572.443 89.9125C584.208 89.9126 595.122 92.8355 605.125 98.682C608.538 100.646 611.719 102.875 614.669 105.365V24.7074H656.309V241.712Z" fill="black"/>
<path d="M260.194 167.432C260.194 152.134 263.537 138.593 270.32 126.911L270.325 126.903L270.329 126.895C276.969 115.616 286.092 106.751 297.645 100.33L298.77 99.7172C310.872 93.1534 324.691 89.9125 340.145 89.9125C356.031 89.9125 369.919 93.1465 381.696 99.7397C393.524 106.311 402.665 115.492 409.061 127.245L409.65 128.344C415.654 139.762 418.609 152.91 418.609 167.703C418.609 169.639 418.563 171.706 418.472 173.902C418.381 176.08 418.241 177.831 418.021 179.038L417.573 181.502H302.76C303.526 184.776 304.564 187.8 305.865 190.581L306.158 191.187C309.227 197.386 313.583 202.119 319.239 205.471C325.166 208.841 332.495 210.602 341.359 210.602V213.602C332.09 213.602 324.214 211.758 317.734 208.068C311.344 204.288 306.484 198.888 303.154 191.868C301.27 187.845 299.921 183.389 299.103 178.502H415.069L415.135 178.104C415.24 177.394 415.328 176.455 415.398 175.288L415.475 173.778C415.542 172.158 415.585 170.613 415.602 169.145L415.609 167.703C415.609 152.853 412.55 139.847 406.43 128.687C400.31 117.437 391.579 108.663 380.239 102.363C369.341 96.2597 356.458 93.112 341.59 92.9213L340.145 92.9125C325.115 92.9125 311.795 96.0627 300.185 102.363L299.104 102.952C288.009 109.117 279.28 117.606 272.915 128.417L272.316 129.469C266.235 140.392 263.194 153.046 263.194 167.432C263.194 181.922 266.389 194.792 272.779 206.042C279.259 217.292 288.259 226.068 299.779 232.368C310.939 238.471 323.916 241.617 338.708 241.808L340.145 241.818C351.13 241.818 360.933 240.55 369.554 238.016L370.385 237.767C379.016 235.064 386.381 231.517 392.479 227.125L393.064 226.698C399.274 222.018 404.09 216.842 407.51 211.172C411.02 205.412 413.045 199.518 413.585 193.488H378.215C377.945 195.828 377.045 198.167 375.515 200.507C374.075 202.847 371.869 205.052 368.899 207.122C366.019 209.102 362.284 210.677 357.694 211.847C353.104 213.017 347.659 213.602 341.359 213.602V210.602C347.486 210.602 352.671 210.032 356.954 208.94C361.042 207.898 364.268 206.553 366.72 204.97L367.2 204.65C369.926 202.748 371.795 200.828 372.96 198.935L372.981 198.9L373.004 198.866C374.326 196.843 375.027 194.941 375.234 193.143L375.541 190.488H416.865L416.573 193.755C415.988 200.293 413.793 206.626 410.071 212.734C406.422 218.779 401.33 224.225 394.87 229.093L394.859 229.102L394.848 229.11C388.32 233.935 380.445 237.761 371.281 240.63L371.272 240.633L371.263 240.636C362.102 243.44 351.717 244.818 340.145 244.818C324.338 244.818 310.372 241.579 298.34 234.999C286.342 228.438 276.938 219.273 270.18 207.539L270.176 207.532L270.171 207.524C263.495 195.77 260.194 182.378 260.194 167.432ZM341.363 120.727C349.728 120.83 356.657 122.539 362.149 125.852C367.819 129.182 372.05 133.592 374.84 139.082C377.139 143.532 378.49 148.257 378.895 153.257H299.429C300.284 149.136 301.571 145.356 303.29 141.917C306.69 135.291 311.4 130.186 317.418 126.6L318.005 126.257C324.395 122.567 331.91 120.722 340.55 120.722L341.363 120.727ZM340.55 123.722C332.346 123.722 325.366 125.47 319.505 128.855L319.493 128.862C313.729 132.156 309.22 136.932 305.959 143.287C304.88 145.449 303.978 147.771 303.258 150.257H375.49C374.89 146.84 373.786 143.577 372.175 140.459L372.165 140.442C369.653 135.498 365.841 131.499 360.631 128.439L360.615 128.43L360.601 128.421C355.525 125.36 348.903 123.722 340.55 123.722Z" fill="black"/>
<path d="M62.864 36.5873L81.85 193.61L112.271 36.5873H162.042L192.334 193.533L211.312 36.5873H254.315L223.164 241.712H163.531L137.155 93.1742L110.779 241.712H50.873L20 36.5873H62.864ZM23.485 39.5873L53.455 238.712H108.266L137.155 76.0141L166.045 238.712H220.585L250.825 39.5873H213.971L193.016 212.89L159.565 39.5873H114.745L81.163 212.926L60.205 39.5873H23.485Z" fill="black"/>
</svg>
