<svg width="92" height="78" viewBox="0 0 92 78" fill="none" xmlns="http://www.w3.org/2000/svg">
<path d="M30.5 46.5L60 35V62.3176L30.5 77.5L30.5 46.5Z" fill="#005FBE"/>
<path d="M49 0.529639C54.9494 -0.49181 59.8333 0.224586 61 0.52978L59 5.45146L36.9991 20.5586C25.1658 24.0683 -2.5 33.4908 5.49915 24.2209C10.7686 18.1144 41.0009 1.90301 49 0.529639Z" fill="#0080FF"/>
<path d="M60.5 48.1402V62.2179L30.5 46.6529V77.4095L0 60.929V37.955C0 20.0096 20.8333 15.637 31 15.1792V33.0331L60.5 48.1402Z" fill="#006DDA"/>
<path d="M60.4453 17.27L31 33.8349L60.5 48.1403L90.5 32.4909L60.4453 17.27Z" fill="#0080FF" stroke="black" stroke-width="0.5"/>
<path d="M60.869 0.0717773L60.5004 18.2697L31 33.8764V15.4001L60.869 0.0717773Z" fill="#005FBE"/>
<path d="M58 25.7725C61.4098 25.7725 64.4854 26.6839 66.7012 28.1445C68.9189 29.6065 70.25 31.5981 70.25 33.7627C70.25 35.9273 68.9189 37.9189 66.7012 39.3809C64.4854 40.8415 61.4098 41.7529 58 41.7529C54.5902 41.7529 51.5146 40.8415 49.2988 39.3809C47.0811 37.9189 45.75 35.9273 45.75 33.7627C45.75 31.5981 47.0811 29.6065 49.2988 28.1445C51.5146 26.6839 54.5902 25.7725 58 25.7725Z" fill="#005FBE" stroke="black" stroke-width="0.5"/>
<mask id="path-7-inside-1_199_21922" fill="white">
<path d="M45.5 26.438H70.5V33.7627H45.5V26.438Z"/>
</mask>
<path d="M45.5 26.438H70.5V33.7627H45.5V26.438Z" fill="#005FBE"/>
<path d="M70.5 26.438H70V33.7627H70.5H71V26.438H70.5ZM45.5 33.7627H46V26.438H45.5H45V33.7627H45.5Z" fill="black" mask="url(#path-7-inside-1_199_21922)"/>
<path d="M58 19.3633C61.4098 19.3633 64.4854 20.2747 66.7012 21.7354C68.9189 23.1973 70.25 25.189 70.25 27.3535C70.25 29.5181 68.9189 31.5097 66.7012 32.9717C64.4854 34.4323 61.4098 35.3438 58 35.3438C54.5902 35.3438 51.5146 34.4323 49.2988 32.9717C47.0811 31.5097 45.75 29.5181 45.75 27.3535C45.75 25.189 47.0811 23.1973 49.2988 21.7354C51.5146 20.2747 54.5902 19.3633 58 19.3633Z" fill="#169AFF" stroke="black" stroke-width="0.5"/>
<path d="M60.5 48.4023L91 32.4023V44.9023L60.5 62.2167V48.4023Z" fill="#005FBE"/>
</svg>
