<svg width="64" height="115" viewBox="0 0 64 115" fill="none" xmlns="http://www.w3.org/2000/svg">
<path d="M63.1196 64.6311L5.11963 95.2236L5.61963 34.2236L63.1196 3.13111V64.6311Z" fill="#8F8F8F"/>
<path d="M49.6196 107.724L35.1196 114.224V49.7236L49.7536 43.2236L49.6196 107.724Z" fill="#B1B1B1"/>
<path d="M56.1555 0.223633L0.119629 30.7237L35.6196 49.7236L50.1196 42.7236L20.6196 27.2236L63.1555 3.72363L56.1555 0.223633Z" fill="white" stroke="black" stroke-width="0.5" stroke-linejoin="bevel"/>
<path d="M0.119629 95.3403V30.2236L35.6196 49.6929V114.739L0.119629 95.3403Z" fill="#E3E3E3"/>
<path d="M5.11963 47.0052V39.2013L31.1196 53.9439V105.417L5.11963 91.3782V84.2786L11.6474 87.4496V82.0123L5.11963 78.9538V68.3042L11.7445 70.7711V66.038L5.11963 62.9795V52.3299L11.7445 55.4887V50.3595L5.11963 47.0052Z" fill="#E3E3E3" stroke="#A2A2A2" stroke-width="0.5"/>
<mask id="mask0_265_34670" style="mask-type:alpha" maskUnits="userSpaceOnUse" x="7" y="61" width="25" height="38">
<rect x="7.11963" y="61.2236" width="24" height="37" fill="#D9D9D9"/>
</mask>
<g mask="url(#mask0_265_34670)">
<path d="M16.3605 85.1801C17.429 88.4181 19.2584 91.0532 21.3397 92.6997C23.4231 94.3476 25.7315 94.9875 27.787 94.3092C29.8426 93.6309 31.3168 91.7428 32.0101 89.1786C32.7029 86.6168 32.6046 83.4104 31.5361 80.1724C30.4676 76.9343 28.6382 74.2992 26.5569 72.6528C24.4736 71.0049 22.1651 70.3649 20.1096 71.0432C18.0541 71.7215 16.5799 73.6097 15.8865 76.1738C15.1938 78.7357 15.292 81.942 16.3605 85.1801Z" fill="#E3E3E3" stroke="black" stroke-width="0.5"/>
<mask id="path-8-inside-1_265_34670" fill="white">
<path d="M13.0752 73.1011L20.9093 96.8419L27.865 94.5466L20.0309 70.8058L13.0752 73.1011Z"/>
</mask>
<path d="M13.0752 73.1011L20.9093 96.8419L27.865 94.5466L20.0309 70.8058L13.0752 73.1011Z" fill="#E3E3E3"/>
<path d="M20.9093 96.8419L20.7526 96.3671L27.7084 94.0718L27.865 94.5466L28.0217 95.0214L21.066 97.3167L20.9093 96.8419ZM20.0309 70.8058L20.1876 71.2806L13.2319 73.5759L13.0752 73.1011L12.9185 72.6263L19.8743 70.331L20.0309 70.8058Z" fill="black" mask="url(#path-8-inside-1_265_34670)"/>
<path d="M10.2741 87.1884C11.3426 90.4265 13.172 93.0616 15.2533 94.708C17.3366 96.3559 19.6451 96.9959 21.7006 96.3176C23.7561 95.6393 25.2303 93.7511 25.9237 91.187C26.6164 88.6251 26.5182 85.4188 25.4497 82.1807C24.3812 78.9427 22.5518 76.3076 20.4704 74.6611C18.3871 73.0132 16.0787 72.3733 14.0232 73.0516C11.9676 73.7299 10.4934 75.618 9.80005 78.1822C9.10734 80.744 9.20558 83.9504 10.2741 87.1884Z" fill="#E3E3E3" stroke="black" stroke-width="0.5"/>
</g>
</svg>
