<svg width="65" height="70" viewBox="0 0 65 70" fill="none" xmlns="http://www.w3.org/2000/svg">
<path d="M2.25977 17.9995L32.2598 34.0546V69.5124L2.25977 53.693V17.9995Z" fill="#E3E3E3"/>
<path d="M63.5 16.9995L32.0009 33.5963V69.4995L63.5 51.9995V16.9995Z" fill="#B1B1B1"/>
<path d="M63.4766 16.688L31.999 34.0034L2.52246 18.1001L34 0.783691L63.4766 16.688Z" fill="white" stroke="black" stroke-width="0.5"/>
<path d="M31.5 11.3213C34.9098 11.3213 37.9854 12.2328 40.2012 13.6934C42.4189 15.1553 43.75 17.147 43.75 19.3115C43.75 21.4761 42.4189 23.4677 40.2012 24.9297C37.9854 26.3903 34.9098 27.3018 31.5 27.3018C28.0902 27.3018 25.0146 26.3903 22.7988 24.9297C20.5811 23.4677 19.25 21.4761 19.25 19.3115C19.25 17.147 20.5811 15.1553 22.7988 13.6934C25.0146 12.2328 28.0902 11.3213 31.5 11.3213Z" fill="#B1B1B1" stroke="black" stroke-width="0.5"/>
<mask id="path-5-inside-1_247_23872" fill="white">
<path d="M19 11.9868H44V19.3115H19V11.9868Z"/>
</mask>
<path d="M19 11.9868H44V19.3115H19V11.9868Z" fill="#B1B1B1"/>
<path d="M44 11.9868H43.5V19.3115H44H44.5V11.9868H44ZM19 19.3115H19.5V11.9868H19H18.5V19.3115H19Z" fill="black" mask="url(#path-5-inside-1_247_23872)"/>
<path d="M31.5 4.91211C34.9098 4.91211 37.9854 5.82357 40.2012 7.28418C42.4189 8.74616 43.75 10.7378 43.75 12.9023C43.75 15.0669 42.4189 17.0585 40.2012 18.5205C37.9854 19.9811 34.9098 20.8926 31.5 20.8926C28.0902 20.8926 25.0146 19.9811 22.7988 18.5205C20.5811 17.0585 19.25 15.0669 19.25 12.9023C19.25 10.7378 20.5811 8.74616 22.7988 7.28418C25.0146 5.82357 28.0902 4.91211 31.5 4.91211Z" fill="white" stroke="black" stroke-width="0.5"/>
<path d="M10.2404 44.9561C11.3089 48.1942 13.1383 50.8293 15.2196 52.4757C17.3029 54.1236 19.6114 54.7636 21.6669 54.0853C23.7224 53.407 25.1966 51.5188 25.89 48.9547C26.5827 46.3928 26.4845 43.1865 25.416 39.9484C24.3475 36.7104 22.5181 34.0753 20.4367 32.4288C18.3534 30.7809 16.045 30.141 13.9895 30.8193C11.9339 31.4976 10.4597 33.3857 9.76636 35.9499C9.07365 38.5117 9.17189 41.7181 10.2404 44.9561Z" fill="#E3E3E3" stroke="black" stroke-width="0.5"/>
<mask id="path-9-inside-2_247_23872" fill="white">
<path d="M6.95508 32.877L14.7892 56.6178L21.7449 54.3225L13.9108 30.5817L6.95508 32.877Z"/>
</mask>
<path d="M6.95508 32.877L14.7892 56.6178L21.7449 54.3225L13.9108 30.5817L6.95508 32.877Z" fill="#E3E3E3"/>
<path d="M14.7892 56.6178L14.6325 56.143L21.5882 53.8477L21.7449 54.3225L21.9016 54.7973L14.9459 57.0926L14.7892 56.6178ZM13.9108 30.5817L14.0675 31.0565L7.11176 33.3518L6.95508 32.877L6.7984 32.4021L13.7541 30.1068L13.9108 30.5817Z" fill="black" mask="url(#path-9-inside-2_247_23872)"/>
<path d="M4.15446 46.9644C5.22297 50.2025 7.05232 52.8376 9.13369 54.484C11.217 56.1319 13.5254 56.7719 15.581 56.0936C17.6365 55.4153 19.1107 53.5271 19.8041 50.963C20.4968 48.4011 20.3986 45.1948 19.33 41.9567C18.2615 38.7187 16.4322 36.0836 14.3508 34.4371C12.2675 32.7892 9.95908 32.1493 7.90354 32.8276C5.848 33.5059 4.37381 35.394 3.68042 37.9582C2.98771 40.52 3.08595 43.7264 4.15446 46.9644Z" fill="#B1B1B1" stroke="black" stroke-width="0.5"/>
<path d="M5.99366 46.7498C6.74053 49.0131 8.01915 50.8517 9.46962 51.9981C10.922 53.1459 12.5199 53.5829 13.9345 53.1162C15.3493 52.6494 16.373 51.3472 16.8571 49.5604C17.3405 47.7758 17.2746 45.5372 16.5277 43.2737C15.7808 41.0104 14.5014 39.172 13.0508 38.0257C11.5985 36.8781 10.0008 36.4417 8.58622 36.9085C7.17169 37.3754 6.14743 38.6768 5.66335 40.4634C5.17993 42.2479 5.24686 44.4864 5.99366 46.7498Z" fill="#00264C" stroke="#B1B1B1" stroke-width="0.5"/>
</svg>
