<svg width="65" height="106" viewBox="0 0 65 106" fill="none" xmlns="http://www.w3.org/2000/svg">
<path d="M2.25977 17.9995L32.2598 34.0546V105.512L2.25977 89.693V17.9995Z" fill="#E3E3E3"/>
<path d="M63.5 16.9995L32.0009 33.5963V105.5L63.5 87.9995V16.9995Z" fill="#B1B1B1"/>
<path d="M63.4766 16.688L31.999 34.0034L2.52246 18.1001L34 0.783691L63.4766 16.688Z" fill="white" stroke="black" stroke-width="0.5"/>
<path d="M31.5 11.3213C34.9098 11.3213 37.9854 12.2328 40.2012 13.6934C42.4189 15.1553 43.75 17.147 43.75 19.3115C43.75 21.4761 42.4189 23.4677 40.2012 24.9297C37.9854 26.3903 34.9098 27.3018 31.5 27.3018C28.0902 27.3018 25.0146 26.3903 22.7988 24.9297C20.5811 23.4677 19.25 21.4761 19.25 19.3115C19.25 17.147 20.5811 15.1553 22.7988 13.6934C25.0146 12.2328 28.0902 11.3213 31.5 11.3213Z" fill="#B1B1B1" stroke="black" stroke-width="0.5"/>
<mask id="path-5-inside-1_247_23883" fill="white">
<path d="M19 11.9868H44V19.3115H19V11.9868Z"/>
</mask>
<path d="M19 11.9868H44V19.3115H19V11.9868Z" fill="#B1B1B1"/>
<path d="M44 11.9868H43.5V19.3115H44H44.5V11.9868H44ZM19 19.3115H19.5V11.9868H19H18.5V19.3115H19Z" fill="black" mask="url(#path-5-inside-1_247_23883)"/>
<path d="M31.5 4.91211C34.9098 4.91211 37.9854 5.82357 40.2012 7.28418C42.4189 8.74616 43.75 10.7378 43.75 12.9023C43.75 15.0669 42.4189 17.0585 40.2012 18.5205C37.9854 19.9811 34.9098 20.8926 31.5 20.8926C28.0902 20.8926 25.0146 19.9811 22.7988 18.5205C20.5811 17.0585 19.25 15.0669 19.25 12.9023C19.25 10.7378 20.5811 8.74616 22.7988 7.28418C25.0146 5.82357 28.0902 4.91211 31.5 4.91211Z" fill="white" stroke="black" stroke-width="0.5"/>
<path d="M10.2404 50.9561C11.3089 54.1942 13.1383 56.8293 15.2196 58.4757C17.3029 60.1236 19.6114 60.7636 21.6669 60.0853C23.7224 59.407 25.1966 57.5188 25.89 54.9547C26.5827 52.3928 26.4845 49.1865 25.416 45.9484C24.3475 42.7104 22.5181 40.0753 20.4367 38.4288C18.3534 36.7809 16.045 36.141 13.9895 36.8193C11.9339 37.4976 10.4597 39.3857 9.76636 41.9499C9.07365 44.5117 9.17189 47.7181 10.2404 50.9561Z" fill="#E3E3E3" stroke="black" stroke-width="0.5"/>
<mask id="path-9-inside-2_247_23883" fill="white">
<path d="M6.95508 38.877L14.7892 62.6178L21.7449 60.3225L13.9108 36.5817L6.95508 38.877Z"/>
</mask>
<path d="M6.95508 38.877L14.7892 62.6178L21.7449 60.3225L13.9108 36.5817L6.95508 38.877Z" fill="#E3E3E3"/>
<path d="M14.7892 62.6178L14.6325 62.143L21.5882 59.8477L21.7449 60.3225L21.9016 60.7973L14.9459 63.0926L14.7892 62.6178ZM13.9108 36.5817L14.0675 37.0565L7.11176 39.3518L6.95508 38.877L6.7984 38.4021L13.7541 36.1068L13.9108 36.5817Z" fill="black" mask="url(#path-9-inside-2_247_23883)"/>
<path d="M4.15446 52.9644C5.22297 56.2025 7.05232 58.8376 9.13369 60.484C11.217 62.1319 13.5254 62.7719 15.581 62.0936C17.6365 61.4153 19.1107 59.5271 19.8041 56.963C20.4968 54.4011 20.3986 51.1948 19.33 47.9567C18.2615 44.7187 16.4322 42.0836 14.3508 40.4371C12.2675 38.7892 9.95908 38.1493 7.90354 38.8276C5.848 39.5059 4.37381 41.394 3.68042 43.9582C2.98771 46.52 3.08595 49.7264 4.15446 52.9644Z" fill="#B1B1B1" stroke="black" stroke-width="0.5"/>
<path d="M10.2404 79.9561C11.3089 83.1942 13.1383 85.8293 15.2196 87.4757C17.3029 89.1236 19.6114 89.7636 21.6669 89.0853C23.7224 88.407 25.1966 86.5188 25.89 83.9547C26.5827 81.3928 26.4845 78.1865 25.416 74.9484C24.3475 71.7104 22.5181 69.0753 20.4367 67.4288C18.3534 65.7809 16.045 65.141 13.9895 65.8193C11.9339 66.4976 10.4597 68.3857 9.76636 70.9499C9.07365 73.5117 9.17189 76.7181 10.2404 79.9561Z" fill="#E3E3E3" stroke="black" stroke-width="0.5"/>
<mask id="path-13-inside-3_247_23883" fill="white">
<path d="M6.95508 67.877L14.7892 91.6178L21.7449 89.3225L13.9108 65.5817L6.95508 67.877Z"/>
</mask>
<path d="M6.95508 67.877L14.7892 91.6178L21.7449 89.3225L13.9108 65.5817L6.95508 67.877Z" fill="#E3E3E3"/>
<path d="M14.7892 91.6178L14.6325 91.143L21.5882 88.8477L21.7449 89.3225L21.9016 89.7973L14.9459 92.0926L14.7892 91.6178ZM13.9108 65.5817L14.0675 66.0565L7.11176 68.3518L6.95508 67.877L6.7984 67.4021L13.7541 65.1068L13.9108 65.5817Z" fill="black" mask="url(#path-13-inside-3_247_23883)"/>
<path d="M4.15446 81.9644C5.22297 85.2025 7.05232 87.8376 9.13369 89.484C11.217 91.1319 13.5254 91.7719 15.581 91.0936C17.6365 90.4153 19.1107 88.5271 19.8041 85.963C20.4968 83.4011 20.3986 80.1948 19.33 76.9567C18.2615 73.7187 16.4322 71.0836 14.3508 69.4371C12.2675 67.7892 9.95908 67.1493 7.90354 67.8276C5.848 68.5059 4.37381 70.394 3.68042 72.9582C2.98771 75.52 3.08595 78.7264 4.15446 81.9644Z" fill="#B1B1B1" stroke="black" stroke-width="0.5"/>
<path d="M5.99366 52.7498C6.74053 55.0131 8.01915 56.8517 9.46962 57.9981C10.922 59.1459 12.5199 59.5829 13.9345 59.1162C15.3493 58.6494 16.373 57.3472 16.8571 55.5604C17.3405 53.7758 17.2746 51.5372 16.5277 49.2737C15.7808 47.0104 14.5014 45.172 13.0508 44.0257C11.5985 42.8781 10.0008 42.4417 8.58622 42.9085C7.17169 43.3754 6.14743 44.6768 5.66335 46.4634C5.17993 48.2479 5.24686 50.4864 5.99366 52.7498Z" fill="#00264C" stroke="#B1B1B1" stroke-width="0.5"/>
<path d="M5.99366 81.7498C6.74053 84.0131 8.01915 85.8517 9.46962 86.9981C10.922 88.1459 12.5199 88.5829 13.9345 88.1162C15.3493 87.6494 16.373 86.3472 16.8571 84.5604C17.3405 82.7758 17.2746 80.5372 16.5277 78.2737C15.7808 76.0104 14.5014 74.172 13.0508 73.0257C11.5985 71.8781 10.0008 71.4417 8.58622 71.9085C7.17169 72.3754 6.14743 73.6768 5.66335 75.4634C5.17993 77.2479 5.24686 79.4864 5.99366 81.7498Z" fill="#00264C" stroke="#B1B1B1" stroke-width="0.5"/>
</svg>
