<svg width="125" height="97" viewBox="0 0 125 97" fill="none" xmlns="http://www.w3.org/2000/svg">
<path d="M1.00005 32.0454L92.3697 80.9022V95.3827L1 47.5L1.00005 32.0454Z" fill="#006DDA"/>
<path d="M123.5 64.02L92.5755 80.5006V94.3281L123.5 78V64.02Z" fill="#005FBE"/>
<path d="M123.968 65.019L93.499 81.2163L0.537109 32.0464L31.6875 15.7769L123.968 65.019Z" fill="#0080FF" stroke="black" stroke-width="0.5"/>
<path d="M31.5 24.9707C34.9098 24.9707 37.9854 25.8822 40.2012 27.3428C42.4189 28.8048 43.75 30.7964 43.75 32.9609C43.75 35.1255 42.4189 37.1171 40.2012 38.5791C37.9854 40.0397 34.9098 40.9512 31.5 40.9512C28.0902 40.9512 25.0146 40.0397 22.7988 38.5791C20.5811 37.1171 19.25 35.1255 19.25 32.9609C19.25 30.7964 20.5811 28.8048 22.7988 27.3428C25.0146 25.8822 28.0902 24.9707 31.5 24.9707Z" fill="#005FBE" stroke="black" stroke-width="0.5"/>
<mask id="path-5-inside-1_70_14784" fill="white">
<path d="M19 25.6362H44V32.9609H19V25.6362Z"/>
</mask>
<path d="M19 25.6362H44V32.9609H19V25.6362Z" fill="#005FBE"/>
<path d="M44 25.6362H43.5V32.9609H44H44.5V25.6362H44ZM19 32.9609H19.5V25.6362H19H18.5V32.9609H19Z" fill="black" mask="url(#path-5-inside-1_70_14784)"/>
<path d="M31.5 18.5615C34.9098 18.5615 37.9854 19.473 40.2012 20.9336C42.4189 22.3956 43.75 24.3872 43.75 26.5518C43.75 28.7163 42.4189 30.7079 40.2012 32.1699C37.9854 33.6305 34.9098 34.542 31.5 34.542C28.0902 34.542 25.0146 33.6305 22.7988 32.1699C20.5811 30.7079 19.25 28.7163 19.25 26.5518C19.25 24.3872 20.5811 22.3956 22.7988 20.9336C25.0146 19.473 28.0902 18.5615 31.5 18.5615Z" fill="#169AFF" stroke="black" stroke-width="0.5"/>
<path d="M59.5 39.5356C62.9098 39.5356 65.9854 40.4471 68.2012 41.9077C70.4189 43.3697 71.75 45.3613 71.75 47.5259C71.75 49.6904 70.4189 51.6821 68.2012 53.144C65.9854 54.6047 62.9098 55.5161 59.5 55.5161C56.0902 55.5161 53.0146 54.6047 50.7988 53.144C48.5811 51.6821 47.25 49.6904 47.25 47.5259C47.25 45.3613 48.5811 43.3697 50.7988 41.9077C53.0146 40.4471 56.0902 39.5356 59.5 39.5356Z" fill="#005FBE" stroke="black" stroke-width="0.5"/>
<mask id="path-9-inside-2_70_14784" fill="white">
<path d="M47 40.2012H72V47.5258H47V40.2012Z"/>
</mask>
<path d="M47 40.2012H72V47.5258H47V40.2012Z" fill="#005FBE"/>
<path d="M72 40.2012H71.5V47.5258H72H72.5V40.2012H72ZM47 47.5258H47.5V40.2012H47H46.5V47.5258H47Z" fill="black" mask="url(#path-9-inside-2_70_14784)"/>
<path d="M59.5 33.1265C62.9098 33.1265 65.9854 34.0379 68.2012 35.4985C70.4189 36.9605 71.75 38.9521 71.75 41.1167C71.75 43.2813 70.4189 45.2729 68.2012 46.7349C65.9854 48.1955 62.9098 49.1069 59.5 49.1069C56.0902 49.1069 53.0146 48.1955 50.7988 46.7349C48.5811 45.2729 47.25 43.2813 47.25 41.1167C47.25 38.9521 48.5811 36.9605 50.7988 35.4985C53.0146 34.0379 56.0902 33.1265 59.5 33.1265Z" fill="#169AFF" stroke="black" stroke-width="0.5"/>
<path d="M88.5 55.1006C91.9098 55.1006 94.9854 56.012 97.2012 57.4727C99.4189 58.9346 100.75 60.9263 100.75 63.0908C100.75 65.2554 99.4189 67.247 97.2012 68.709C94.9854 70.1696 91.9098 71.0811 88.5 71.0811C85.0902 71.0811 82.0146 70.1696 79.7988 68.709C77.5811 67.247 76.25 65.2554 76.25 63.0908C76.25 60.9263 77.5811 58.9346 79.7988 57.4727C82.0146 56.012 85.0902 55.1006 88.5 55.1006Z" fill="#005FBE" stroke="black" stroke-width="0.5"/>
<mask id="path-13-inside-3_70_14784" fill="white">
<path d="M76 55.7661H101V63.0908H76V55.7661Z"/>
</mask>
<path d="M76 55.7661H101V63.0908H76V55.7661Z" fill="#005FBE"/>
<path d="M101 55.7661H100.5V63.0908H101H101.5V55.7661H101ZM76 63.0908H76.5V55.7661H76H75.5V63.0908H76Z" fill="black" mask="url(#path-13-inside-3_70_14784)"/>
<path d="M88.5 48.6914C91.9098 48.6914 94.9854 49.6029 97.2012 51.0635C99.4189 52.5255 100.75 54.5171 100.75 56.6816C100.75 58.8462 99.4189 60.8378 97.2012 62.2998C94.9854 63.7604 91.9098 64.6719 88.5 64.6719C85.0902 64.6719 82.0146 63.7604 79.7988 62.2998C77.5811 60.8378 76.25 58.8462 76.25 56.6816C76.25 54.5171 77.5811 52.5255 79.7988 51.0635C82.0146 49.6029 85.0902 48.6914 88.5 48.6914Z" fill="#169AFF" stroke="black" stroke-width="0.5"/>
</svg>
