<svg width="120" height="113" viewBox="0 0 120 113" fill="none" xmlns="http://www.w3.org/2000/svg">
<path d="M0.020726 31.0454L60 63.0908V105.665L0 73.0779L0.020726 31.0454Z" fill="#006DDA"/>
<path d="M120 32.0454L60 64.02V105.665L120 73.0778V32.0454Z" fill="#005FBE"/>
<path d="M119.47 32.0449L60 63.8066L0.530273 32.0449L60 0.283203L119.47 32.0449Z" fill="#0080FF" stroke="black" stroke-width="0.5"/>
<path d="M60.5 39.6201C63.9098 39.6201 66.9854 40.5316 69.2012 41.9922C71.4189 43.4542 72.75 45.4458 72.75 47.6104C72.75 49.7749 71.4189 51.7665 69.2012 53.2285C66.9854 54.6891 63.9098 55.6006 60.5 55.6006C57.0902 55.6006 54.0146 54.6891 51.7988 53.2285C49.5811 51.7665 48.25 49.7749 48.25 47.6104C48.25 45.4458 49.5811 43.4542 51.7988 41.9922C54.0146 40.5316 57.0902 39.6201 60.5 39.6201Z" fill="#005FBE" stroke="black" stroke-width="0.5"/>
<mask id="path-5-inside-1_70_13189" fill="white">
<path d="M48 40.2856H73V47.6103H48V40.2856Z"/>
</mask>
<path d="M48 40.2856H73V47.6103H48V40.2856Z" fill="#005FBE"/>
<path d="M73 40.2856H72.5V47.6103H73H73.5V40.2856H73ZM48 47.6103H48.5V40.2856H48H47.5V47.6103H48Z" fill="black" mask="url(#path-5-inside-1_70_13189)"/>
<path d="M60.5 33.2109C63.9098 33.2109 66.9854 34.1224 69.2012 35.583C71.4189 37.045 72.75 39.0366 72.75 41.2012C72.75 43.3657 71.4189 45.3574 69.2012 46.8193C66.9854 48.28 63.9098 49.1914 60.5 49.1914C57.0902 49.1914 54.0146 48.28 51.7988 46.8193C49.5811 45.3574 48.25 43.3657 48.25 41.2012C48.25 39.0366 49.5811 37.045 51.7988 35.583C54.0146 34.1224 57.0902 33.2109 60.5 33.2109Z" fill="#169AFF" stroke="black" stroke-width="0.5"/>
<path d="M60.5 10.3213C63.9098 10.3213 66.9854 11.2328 69.2012 12.6934C71.4189 14.1553 72.75 16.147 72.75 18.3115C72.75 20.4761 71.4189 22.4677 69.2012 23.9297C66.9854 25.3903 63.9098 26.3018 60.5 26.3018C57.0902 26.3018 54.0146 25.3903 51.7988 23.9297C49.5811 22.4677 48.25 20.4761 48.25 18.3115C48.25 16.147 49.5811 14.1553 51.7988 12.6934C54.0146 11.2328 57.0902 10.3213 60.5 10.3213Z" fill="#005FBE" stroke="black" stroke-width="0.5"/>
<mask id="path-9-inside-2_70_13189" fill="white">
<path d="M48 10.9868H73V18.3115H48V10.9868Z"/>
</mask>
<path d="M48 10.9868H73V18.3115H48V10.9868Z" fill="#005FBE"/>
<path d="M73 10.9868H72.5V18.3115H73H73.5V10.9868H73ZM48 18.3115H48.5V10.9868H48H47.5V18.3115H48Z" fill="black" mask="url(#path-9-inside-2_70_13189)"/>
<path d="M60.5 3.91211C63.9098 3.91211 66.9854 4.82357 69.2012 6.28418C71.4189 7.74616 72.75 9.73778 72.75 11.9023C72.75 14.0669 71.4189 16.0585 69.2012 17.5205C66.9854 18.9811 63.9098 19.8926 60.5 19.8926C57.0902 19.8926 54.0146 18.9811 51.7988 17.5205C49.5811 16.0585 48.25 14.0669 48.25 11.9023C48.25 9.73778 49.5811 7.74616 51.7988 6.28418C54.0146 4.82357 57.0902 3.91211 60.5 3.91211Z" fill="#169AFF" stroke="black" stroke-width="0.5"/>
<path d="M89.5 24.9707C92.9098 24.9707 95.9854 25.8822 98.2012 27.3428C100.419 28.8048 101.75 30.7964 101.75 32.9609C101.75 35.1255 100.419 37.1171 98.2012 38.5791C95.9854 40.0397 92.9098 40.9512 89.5 40.9512C86.0902 40.9512 83.0146 40.0397 80.7988 38.5791C78.5811 37.1171 77.25 35.1255 77.25 32.9609C77.25 30.7964 78.5811 28.8048 80.7988 27.3428C83.0146 25.8822 86.0902 24.9707 89.5 24.9707Z" fill="#005FBE" stroke="black" stroke-width="0.5"/>
<mask id="path-13-inside-3_70_13189" fill="white">
<path d="M77 25.6362H102V32.9609H77V25.6362Z"/>
</mask>
<path d="M77 25.6362H102V32.9609H77V25.6362Z" fill="#005FBE"/>
<path d="M102 25.6362H101.5V32.9609H102H102.5V25.6362H102ZM77 32.9609H77.5V25.6362H77H76.5V32.9609H77Z" fill="black" mask="url(#path-13-inside-3_70_13189)"/>
<path d="M89.5 18.5615C92.9098 18.5615 95.9854 19.473 98.2012 20.9336C100.419 22.3956 101.75 24.3872 101.75 26.5518C101.75 28.7163 100.419 30.7079 98.2012 32.1699C95.9854 33.6305 92.9098 34.542 89.5 34.542C86.0902 34.542 83.0146 33.6305 80.7988 32.1699C78.5811 30.7079 77.25 28.7163 77.25 26.5518C77.25 24.3872 78.5811 22.3956 80.7988 20.9336C83.0146 19.473 86.0902 18.5615 89.5 18.5615Z" fill="#169AFF" stroke="black" stroke-width="0.5"/>
<path d="M30.5 24.9707C33.9098 24.9707 36.9854 25.8822 39.2012 27.3428C41.4189 28.8048 42.75 30.7964 42.75 32.9609C42.75 35.1255 41.4189 37.1171 39.2012 38.5791C36.9854 40.0397 33.9098 40.9512 30.5 40.9512C27.0902 40.9512 24.0146 40.0397 21.7988 38.5791C19.5811 37.1171 18.25 35.1255 18.25 32.9609C18.25 30.7964 19.5811 28.8048 21.7988 27.3428C24.0146 25.8822 27.0902 24.9707 30.5 24.9707Z" fill="#005FBE" stroke="black" stroke-width="0.5"/>
<mask id="path-17-inside-4_70_13189" fill="white">
<path d="M18 25.6362H43V32.9609H18V25.6362Z"/>
</mask>
<path d="M18 25.6362H43V32.9609H18V25.6362Z" fill="#005FBE"/>
<path d="M43 25.6362H42.5V32.9609H43H43.5V25.6362H43ZM18 32.9609H18.5V25.6362H18H17.5V32.9609H18Z" fill="black" mask="url(#path-17-inside-4_70_13189)"/>
<path d="M30.5 18.5615C33.9098 18.5615 36.9854 19.473 39.2012 20.9336C41.4189 22.3956 42.75 24.3872 42.75 26.5518C42.75 28.7163 41.4189 30.7079 39.2012 32.1699C36.9854 33.6305 33.9098 34.542 30.5 34.542C27.0902 34.542 24.0146 33.6305 21.7988 32.1699C19.5811 30.7079 18.25 28.7163 18.25 26.5518C18.25 24.3872 19.5811 22.3956 21.7988 20.9336C24.0146 19.473 27.0902 18.5615 30.5 18.5615Z" fill="#169AFF" stroke="black" stroke-width="0.5"/>
</svg>
