<svg width="120" height="81" viewBox="0 0 120 81" fill="none" xmlns="http://www.w3.org/2000/svg">
<path d="M0 32.0454L60 64.02V78.4397L0 46.6947V32.0454Z" fill="#006DDA"/>
<path d="M120 32.0454L60 64.02V78.454L120 45.6947V32.0454Z" fill="#005FBE"/>
<path d="M119.47 32.0449L60 63.8066L0.530273 32.0449L60 0.283203L119.47 32.0449Z" fill="#0080FF" stroke="black" stroke-width="0.5"/>
<path d="M60.5 10.25C63.9051 10.25 66.9774 11.2442 69.1924 12.8389C71.4077 14.4339 72.75 16.6155 72.75 19C72.75 21.3845 71.4077 23.5661 69.1924 25.1611C66.9774 26.7558 63.9051 27.75 60.5 27.75C57.0949 27.75 54.0226 26.7558 51.8076 25.1611C49.5923 23.5661 48.25 21.3845 48.25 19C48.25 16.6155 49.5923 14.4339 51.8076 12.8389C54.0226 11.2442 57.0949 10.25 60.5 10.25Z" fill="#005FBE" stroke="black" stroke-width="0.5"/>
<mask id="path-5-inside-1_70_13185" fill="white">
<path d="M48 11H73V19H48V11Z"/>
</mask>
<path d="M48 11H73V19H48V11Z" fill="#005FBE"/>
<path d="M73 11H72.5V19H73H73.5V11H73ZM48 19H48.5V11H48H47.5V19H48Z" fill="black" mask="url(#path-5-inside-1_70_13185)"/>
<path d="M60.5 3.25C63.9051 3.25 66.9774 4.24421 69.1924 5.83887C71.4077 7.43391 72.75 9.61552 72.75 12C72.75 14.3845 71.4077 16.5661 69.1924 18.1611C66.9774 19.7558 63.9051 20.75 60.5 20.75C57.0949 20.75 54.0226 19.7558 51.8076 18.1611C49.5923 16.5661 48.25 14.3845 48.25 12C48.25 9.61552 49.5923 7.43391 51.8076 5.83887C54.0226 4.24421 57.0949 3.25 60.5 3.25Z" fill="#169AFF" stroke="black" stroke-width="0.5"/>
<path d="M60.5 39.25C63.9051 39.25 66.9774 40.2442 69.1924 41.8389C71.4077 43.4339 72.75 45.6155 72.75 48C72.75 50.3845 71.4077 52.5661 69.1924 54.1611C66.9774 55.7558 63.9051 56.75 60.5 56.75C57.0949 56.75 54.0226 55.7558 51.8076 54.1611C49.5923 52.5661 48.25 50.3845 48.25 48C48.25 45.6155 49.5923 43.4339 51.8076 41.8389C54.0226 40.2442 57.0949 39.25 60.5 39.25Z" fill="#005FBE" stroke="black" stroke-width="0.5"/>
<mask id="path-9-inside-2_70_13185" fill="white">
<path d="M48 40H73V48H48V40Z"/>
</mask>
<path d="M48 40H73V48H48V40Z" fill="#005FBE"/>
<path d="M73 40H72.5V48H73H73.5V40H73ZM48 48H48.5V40H48H47.5V48H48Z" fill="black" mask="url(#path-9-inside-2_70_13185)"/>
<path d="M60.5 32.25C63.9051 32.25 66.9774 33.2442 69.1924 34.8389C71.4077 36.4339 72.75 38.6155 72.75 41C72.75 43.3845 71.4077 45.5661 69.1924 47.1611C66.9774 48.7558 63.9051 49.75 60.5 49.75C57.0949 49.75 54.0226 48.7558 51.8076 47.1611C49.5923 45.5661 48.25 43.3845 48.25 41C48.25 38.6155 49.5923 36.4339 51.8076 34.8389C54.0226 33.2442 57.0949 32.25 60.5 32.25Z" fill="#169AFF" stroke="black" stroke-width="0.5"/>
<path d="M89.5 25.25C92.9051 25.25 95.9774 26.2442 98.1924 27.8389C100.408 29.4339 101.75 31.6155 101.75 34C101.75 36.3845 100.408 38.5661 98.1924 40.1611C95.9774 41.7558 92.9051 42.75 89.5 42.75C86.0949 42.75 83.0226 41.7558 80.8076 40.1611C78.5923 38.5661 77.25 36.3845 77.25 34C77.25 31.6155 78.5923 29.4339 80.8076 27.8389C83.0226 26.2442 86.0949 25.25 89.5 25.25Z" fill="#005FBE" stroke="black" stroke-width="0.5"/>
<mask id="path-13-inside-3_70_13185" fill="white">
<path d="M77 26H102V34H77V26Z"/>
</mask>
<path d="M77 26H102V34H77V26Z" fill="#005FBE"/>
<path d="M102 26H101.5V34H102H102.5V26H102ZM77 34H77.5V26H77H76.5V34H77Z" fill="black" mask="url(#path-13-inside-3_70_13185)"/>
<path d="M89.5 18.25C92.9051 18.25 95.9774 19.2442 98.1924 20.8389C100.408 22.4339 101.75 24.6155 101.75 27C101.75 29.3845 100.408 31.5661 98.1924 33.1611C95.9774 34.7558 92.9051 35.75 89.5 35.75C86.0949 35.75 83.0226 34.7558 80.8076 33.1611C78.5923 31.5661 77.25 29.3845 77.25 27C77.25 24.6155 78.5923 22.4339 80.8076 20.8389C83.0226 19.2442 86.0949 18.25 89.5 18.25Z" fill="#169AFF" stroke="black" stroke-width="0.5"/>
<path d="M30.5 25.25C33.9051 25.25 36.9774 26.2442 39.1924 27.8389C41.4077 29.4339 42.75 31.6155 42.75 34C42.75 36.3845 41.4077 38.5661 39.1924 40.1611C36.9774 41.7558 33.9051 42.75 30.5 42.75C27.0949 42.75 24.0226 41.7558 21.8076 40.1611C19.5923 38.5661 18.25 36.3845 18.25 34C18.25 31.6155 19.5923 29.4339 21.8076 27.8389C24.0226 26.2442 27.0949 25.25 30.5 25.25Z" fill="#005FBE" stroke="black" stroke-width="0.5"/>
<mask id="path-17-inside-4_70_13185" fill="white">
<path d="M18 26H43V34H18V26Z"/>
</mask>
<path d="M18 26H43V34H18V26Z" fill="#005FBE"/>
<path d="M43 26H42.5V34H43H43.5V26H43ZM18 34H18.5V26H18H17.5V34H18Z" fill="black" mask="url(#path-17-inside-4_70_13185)"/>
<path d="M30.5 18.25C33.9051 18.25 36.9774 19.2442 39.1924 20.8389C41.4077 22.4339 42.75 24.6155 42.75 27C42.75 29.3845 41.4077 31.5661 39.1924 33.1611C36.9774 34.7558 33.9051 35.75 30.5 35.75C27.0949 35.75 24.0226 34.7558 21.8076 33.1611C19.5923 31.5661 18.25 29.3845 18.25 27C18.25 24.6155 19.5923 22.4339 21.8076 20.8389C24.0226 19.2442 27.0949 18.25 30.5 18.25Z" fill="#169AFF" stroke="black" stroke-width="0.5"/>
</svg>
