<svg width="90" height="63" viewBox="0 0 90 63" fill="none" xmlns="http://www.w3.org/2000/svg">
<path d="M90.001 15.5649L30.001 47.6104L30.001 62.2597L90.001 30.6721V15.5649Z" fill="#005FBE"/>
<path d="M0.000976562 32.0454L30.001 47.6103V62.2597L0.000976562 46.4658V32.0454Z" fill="#006DDA"/>
<path d="M0.537109 32.042L29.998 47.3271L89.4639 15.5674L60.0029 0.282227L0.537109 32.042Z" fill="#0080FF" stroke="black" stroke-width="0.5"/>
<path d="M59.501 9.16553C56.0959 9.16553 53.0235 10.1597 50.8086 11.7544C48.5933 13.3494 47.251 15.531 47.251 17.9155C47.251 20.3 48.5933 22.4816 50.8086 24.0767C53.0235 25.6713 56.0959 26.6655 59.501 26.6655C62.9061 26.6655 65.9784 25.6713 68.1934 24.0767C70.4087 22.4816 71.751 20.3 71.751 17.9155C71.751 15.531 70.4087 13.3494 68.1934 11.7544C65.9784 10.1597 62.9061 9.16553 59.501 9.16553Z" fill="#005FBE" stroke="black" stroke-width="0.5"/>
<mask id="path-5-inside-1_70_14105" fill="white">
<path d="M72.001 9.91553H47.001V17.9155H72.001V9.91553Z"/>
</mask>
<path d="M72.001 9.91553H47.001V17.9155H72.001V9.91553Z" fill="#005FBE"/>
<path d="M47.001 9.91553H47.501V17.9155H47.001H46.501V9.91553H47.001ZM72.001 17.9155H71.501V9.91553H72.001H72.501V17.9155H72.001Z" fill="black" mask="url(#path-5-inside-1_70_14105)"/>
<path d="M59.501 2.16553C56.0959 2.16553 53.0235 3.15973 50.8086 4.75439C48.5933 6.34944 47.251 8.53105 47.251 10.9155C47.251 13.3 48.5933 15.4816 50.8086 17.0767C53.0235 18.6713 56.0959 19.6655 59.501 19.6655C62.9061 19.6655 65.9784 18.6713 68.1934 17.0767C70.4087 15.4816 71.751 13.3 71.751 10.9155C71.751 8.53105 70.4087 6.34944 68.1934 4.75439C65.9784 3.15973 62.9061 2.16553 59.501 2.16553Z" fill="#169AFF" stroke="black" stroke-width="0.5"/>
<path d="M30.501 25.1655C27.0959 25.1655 24.0235 26.1597 21.8086 27.7544C19.5933 29.3494 18.251 31.531 18.251 33.9155C18.251 36.3 19.5933 38.4816 21.8086 40.0767C24.0235 41.6713 27.0959 42.6655 30.501 42.6655C33.9061 42.6655 36.9784 41.6713 39.1934 40.0767C41.4087 38.4816 42.751 36.3 42.751 33.9155C42.751 31.531 41.4087 29.3494 39.1934 27.7544C36.9784 26.1597 33.9061 25.1655 30.501 25.1655Z" fill="#005FBE" stroke="black" stroke-width="0.5"/>
<mask id="path-9-inside-2_70_14105" fill="white">
<path d="M43.001 25.9155H18.001V33.9155H43.001V25.9155Z"/>
</mask>
<path d="M43.001 25.9155H18.001V33.9155H43.001V25.9155Z" fill="#005FBE"/>
<path d="M18.001 25.9155H18.501V33.9155H18.001H17.501V25.9155H18.001ZM43.001 33.9155H42.501V25.9155H43.001H43.501V33.9155H43.001Z" fill="black" mask="url(#path-9-inside-2_70_14105)"/>
<path d="M30.501 18.1655C27.0959 18.1655 24.0235 19.1597 21.8086 20.7544C19.5933 22.3494 18.251 24.531 18.251 26.9155C18.251 29.3 19.5933 31.4816 21.8086 33.0767C24.0235 34.6713 27.0959 35.6655 30.501 35.6655C33.9061 35.6655 36.9784 34.6713 39.1934 33.0767C41.4087 31.4816 42.751 29.3 42.751 26.9155C42.751 24.531 41.4087 22.3494 39.1934 20.7544C36.9784 19.1597 33.9061 18.1655 30.501 18.1655Z" fill="#169AFF" stroke="black" stroke-width="0.5"/>
</svg>
