<svg width="208" height="256" viewBox="0 0 208 256" fill="none" xmlns="http://www.w3.org/2000/svg">
<path d="M208.001 150.649L148.001 182.695L148.001 197.344L208.001 165.756V150.649Z" fill="#005FBE"/>
<path d="M118.001 167.13L148.001 182.695V197.344L118.001 181.55V167.13Z" fill="#006DDA"/>
<path d="M118.537 167.126L147.998 182.412L207.464 150.652L178.003 135.367L118.537 167.126Z" fill="#0080FF" stroke="black" stroke-width="0.5"/>
<path d="M177.501 144.25C174.096 144.25 171.024 145.244 168.809 146.839C166.593 148.434 165.251 150.616 165.251 153C165.251 155.384 166.593 157.566 168.809 159.161C171.024 160.756 174.096 161.75 177.501 161.75C180.906 161.75 183.978 160.756 186.193 159.161C188.409 157.566 189.751 155.384 189.751 153C189.751 150.616 188.409 148.434 186.193 146.839C183.978 145.244 180.906 144.25 177.501 144.25Z" fill="#005FBE" stroke="black" stroke-width="0.5"/>
<mask id="path-5-inside-1_288_29463" fill="white">
<path d="M190.001 145H165.001V153H190.001V145Z"/>
</mask>
<path d="M190.001 145H165.001V153H190.001V145Z" fill="#005FBE"/>
<path d="M165.001 145H165.501V153H165.001H164.501V145H165.001ZM190.001 153H189.501V145H190.001H190.501V153H190.001Z" fill="black" mask="url(#path-5-inside-1_288_29463)"/>
<path d="M177.501 137.25C174.096 137.25 171.024 138.244 168.809 139.839C166.593 141.434 165.251 143.616 165.251 146C165.251 148.384 166.593 150.566 168.809 152.161C171.024 153.756 174.096 154.75 177.501 154.75C180.906 154.75 183.978 153.756 186.193 152.161C188.409 150.566 189.751 148.384 189.751 146C189.751 143.616 188.409 141.434 186.193 139.839C183.978 138.244 180.906 137.25 177.501 137.25Z" fill="#169AFF" stroke="black" stroke-width="0.5"/>
<path d="M148.501 160.25C145.096 160.25 142.024 161.244 139.809 162.839C137.593 164.434 136.251 166.616 136.251 169C136.251 171.384 137.593 173.566 139.809 175.161C142.024 176.756 145.096 177.75 148.501 177.75C151.906 177.75 154.978 176.756 157.193 175.161C159.409 173.566 160.751 171.384 160.751 169C160.751 166.616 159.409 164.434 157.193 162.839C154.978 161.244 151.906 160.25 148.501 160.25Z" fill="#005FBE" stroke="black" stroke-width="0.5"/>
<mask id="path-9-inside-2_288_29463" fill="white">
<path d="M161.001 161H136.001V169H161.001V161Z"/>
</mask>
<path d="M161.001 161H136.001V169H161.001V161Z" fill="#005FBE"/>
<path d="M136.001 161H136.501V169H136.001H135.501V161H136.001ZM161.001 169H160.501V161H161.001H161.501V169H161.001Z" fill="black" mask="url(#path-9-inside-2_288_29463)"/>
<path d="M148.501 153.25C145.096 153.25 142.024 154.244 139.809 155.839C137.593 157.434 136.251 159.616 136.251 162C136.251 164.384 137.593 166.566 139.809 168.161C142.024 169.756 145.096 170.75 148.501 170.75C151.906 170.75 154.978 169.756 157.193 168.161C159.409 166.566 160.751 164.384 160.751 162C160.751 159.616 159.409 157.434 157.193 155.839C154.978 154.244 151.906 153.25 148.501 153.25Z" fill="#169AFF" stroke="black" stroke-width="0.5"/>
<path d="M28 77.0454L118 124.885V139.305L28 91.6947V77.0454Z" fill="#006DDA"/>
<path d="M178 93L118 124.585V139.019L178 107.26V93Z" fill="#005FBE"/>
<path d="M177.469 93L118 124.829L28.5303 77.0449L88.001 45.2832L177.469 93Z" fill="#0080FF" stroke="black" stroke-width="0.5"/>
<path d="M88.5 55.25C91.9051 55.25 94.9774 56.2442 97.1924 57.8389C99.4077 59.4339 100.75 61.6155 100.75 64C100.75 66.3845 99.4077 68.5661 97.1924 70.1611C94.9774 71.7558 91.9051 72.75 88.5 72.75C85.0949 72.75 82.0226 71.7558 79.8076 70.1611C77.5923 68.5661 76.25 66.3845 76.25 64C76.25 61.6155 77.5923 59.4339 79.8076 57.8389C82.0226 56.2442 85.0949 55.25 88.5 55.25Z" fill="#005FBE" stroke="black" stroke-width="0.5"/>
<mask id="path-16-inside-3_288_29463" fill="white">
<path d="M76 56H101V64H76V56Z"/>
</mask>
<path d="M76 56H101V64H76V56Z" fill="#005FBE"/>
<path d="M101 56H100.5V64H101H101.5V56H101ZM76 64H76.5V56H76H75.5V64H76Z" fill="black" mask="url(#path-16-inside-3_288_29463)"/>
<path d="M88.5 48.25C91.9051 48.25 94.9774 49.2442 97.1924 50.8389C99.4077 52.4339 100.75 54.6155 100.75 57C100.75 59.3845 99.4077 61.5661 97.1924 63.1611C94.9774 64.7558 91.9051 65.75 88.5 65.75C85.0949 65.75 82.0226 64.7558 79.8076 63.1611C77.5923 61.5661 76.25 59.3845 76.25 57C76.25 54.6155 77.5923 52.4339 79.8076 50.8389C82.0226 49.2442 85.0949 48.25 88.5 48.25Z" fill="#169AFF" stroke="black" stroke-width="0.5"/>
<path d="M88.5 85.25C91.9051 85.25 94.9774 86.2442 97.1924 87.8389C99.4077 89.4339 100.75 91.6155 100.75 94C100.75 96.3845 99.4077 98.5661 97.1924 100.161C94.9774 101.756 91.9051 102.75 88.5 102.75C85.0949 102.75 82.0226 101.756 79.8076 100.161C77.5923 98.5661 76.25 96.3845 76.25 94C76.25 91.6155 77.5923 89.4339 79.8076 87.8389C82.0226 86.2442 85.0949 85.25 88.5 85.25Z" fill="#005FBE" stroke="black" stroke-width="0.5"/>
<mask id="path-20-inside-4_288_29463" fill="white">
<path d="M76 86H101V94H76V86Z"/>
</mask>
<path d="M76 86H101V94H76V86Z" fill="#005FBE"/>
<path d="M101 86H100.5V94H101H101.5V86H101ZM76 94H76.5V86H76H75.5V94H76Z" fill="black" mask="url(#path-20-inside-4_288_29463)"/>
<path d="M88.5 78.25C91.9051 78.25 94.9774 79.2442 97.1924 80.8389C99.4077 82.4339 100.75 84.6155 100.75 87C100.75 89.3845 99.4077 91.5661 97.1924 93.1611C94.9774 94.7558 91.9051 95.75 88.5 95.75C85.0949 95.75 82.0226 94.7558 79.8076 93.1611C77.5923 91.5661 76.25 89.3845 76.25 87C76.25 84.6155 77.5923 82.4339 79.8076 80.8389C82.0226 79.2442 85.0949 78.25 88.5 78.25Z" fill="#169AFF" stroke="black" stroke-width="0.5"/>
<path d="M117.5 101.25C120.905 101.25 123.977 102.244 126.192 103.839C128.408 105.434 129.75 107.616 129.75 110C129.75 112.384 128.408 114.566 126.192 116.161C123.977 117.756 120.905 118.75 117.5 118.75C114.095 118.75 111.023 117.756 108.808 116.161C106.592 114.566 105.25 112.384 105.25 110C105.25 107.616 106.592 105.434 108.808 103.839C111.023 102.244 114.095 101.25 117.5 101.25Z" fill="#005FBE" stroke="black" stroke-width="0.5"/>
<mask id="path-24-inside-5_288_29463" fill="white">
<path d="M105 102H130V110H105V102Z"/>
</mask>
<path d="M105 102H130V110H105V102Z" fill="#005FBE"/>
<path d="M130 102H129.5V110H130H130.5V102H130ZM105 110H105.5V102H105H104.5V110H105Z" fill="black" mask="url(#path-24-inside-5_288_29463)"/>
<path d="M117.5 94.25C120.905 94.25 123.977 95.2442 126.192 96.8389C128.408 98.4339 129.75 100.616 129.75 103C129.75 105.384 128.408 107.566 126.192 109.161C123.977 110.756 120.905 111.75 117.5 111.75C114.095 111.75 111.023 110.756 108.808 109.161C106.592 107.566 105.25 105.384 105.25 103C105.25 100.616 106.592 98.4339 108.808 96.8389C111.023 95.2442 114.095 94.25 117.5 94.25Z" fill="#169AFF" stroke="black" stroke-width="0.5"/>
<path d="M117.5 70.25C120.905 70.25 123.977 71.2442 126.192 72.8389C128.408 74.4339 129.75 76.6155 129.75 79C129.75 81.3845 128.408 83.5661 126.192 85.1611C123.977 86.7558 120.905 87.75 117.5 87.75C114.095 87.75 111.023 86.7558 108.808 85.1611C106.592 83.5661 105.25 81.3845 105.25 79C105.25 76.6155 106.592 74.4339 108.808 72.8389C111.023 71.2442 114.095 70.25 117.5 70.25Z" fill="#005FBE" stroke="black" stroke-width="0.5"/>
<mask id="path-28-inside-6_288_29463" fill="white">
<path d="M105 71H130V79H105V71Z"/>
</mask>
<path d="M105 71H130V79H105V71Z" fill="#005FBE"/>
<path d="M130 71H129.5V79H130H130.5V71H130ZM105 79H105.5V71H105H104.5V79H105Z" fill="black" mask="url(#path-28-inside-6_288_29463)"/>
<path d="M117.5 63.25C120.905 63.25 123.977 64.2442 126.192 65.8389C128.408 67.4339 129.75 69.6155 129.75 72C129.75 74.3845 128.408 76.5661 126.192 78.1611C123.977 79.7558 120.905 80.75 117.5 80.75C114.095 80.75 111.023 79.7558 108.808 78.1611C106.592 76.5661 105.25 74.3845 105.25 72C105.25 69.6155 106.592 67.4339 108.808 65.8389C111.023 64.2442 114.095 63.25 117.5 63.25Z" fill="#169AFF" stroke="black" stroke-width="0.5"/>
<path d="M146.5 85.25C149.905 85.25 152.977 86.2442 155.192 87.8389C157.408 89.4339 158.75 91.6155 158.75 94C158.75 96.3845 157.408 98.5661 155.192 100.161C152.977 101.756 149.905 102.75 146.5 102.75C143.095 102.75 140.023 101.756 137.808 100.161C135.592 98.5661 134.25 96.3845 134.25 94C134.25 91.6155 135.592 89.4339 137.808 87.8389C140.023 86.2442 143.095 85.25 146.5 85.25Z" fill="#005FBE" stroke="black" stroke-width="0.5"/>
<mask id="path-32-inside-7_288_29463" fill="white">
<path d="M134 86H159V94H134V86Z"/>
</mask>
<path d="M134 86H159V94H134V86Z" fill="#005FBE"/>
<path d="M159 86H158.5V94H159H159.5V86H159ZM134 94H134.5V86H134H133.5V94H134Z" fill="black" mask="url(#path-32-inside-7_288_29463)"/>
<path d="M146.5 78.25C149.905 78.25 152.977 79.2442 155.192 80.8389C157.408 82.4339 158.75 84.6155 158.75 87C158.75 89.3845 157.408 91.5661 155.192 93.1611C152.977 94.7558 149.905 95.75 146.5 95.75C143.095 95.75 140.023 94.7558 137.808 93.1611C135.592 91.5661 134.25 89.3845 134.25 87C134.25 84.6155 135.592 82.4339 137.808 80.8389C140.023 79.2442 143.095 78.25 146.5 78.25Z" fill="#169AFF" stroke="black" stroke-width="0.5"/>
<path d="M58.5 70.25C61.9051 70.25 64.9774 71.2442 67.1924 72.8389C69.4077 74.4339 70.75 76.6155 70.75 79C70.75 81.3845 69.4077 83.5661 67.1924 85.1611C64.9774 86.7558 61.9051 87.75 58.5 87.75C55.0949 87.75 52.0226 86.7558 49.8076 85.1611C47.5923 83.5661 46.25 81.3845 46.25 79C46.25 76.6155 47.5923 74.4339 49.8076 72.8389C52.0226 71.2442 55.0949 70.25 58.5 70.25Z" fill="#005FBE" stroke="black" stroke-width="0.5"/>
<mask id="path-36-inside-8_288_29463" fill="white">
<path d="M46 71H71V79H46V71Z"/>
</mask>
<path d="M46 71H71V79H46V71Z" fill="#005FBE"/>
<path d="M71 71H70.5V79H71H71.5V71H71ZM46 79H46.5V71H46H45.5V79H46Z" fill="black" mask="url(#path-36-inside-8_288_29463)"/>
<path d="M58.5 63.25C61.9051 63.25 64.9774 64.2442 67.1924 65.8389C69.4077 67.4339 70.75 69.6155 70.75 72C70.75 74.3845 69.4077 76.5661 67.1924 78.1611C64.9774 79.7558 61.9051 80.75 58.5 80.75C55.0949 80.75 52.0226 79.7558 49.8076 78.1611C47.5923 76.5661 46.25 74.3845 46.25 72C46.25 69.6155 47.5923 67.4339 49.8076 65.8389C52.0226 64.2442 55.0949 63.25 58.5 63.25Z" fill="#169AFF" stroke="black" stroke-width="0.5"/>
<path d="M28 62.0454L118 109.885V124.305L28 76.6947V62.0454Z" fill="#006DDA"/>
<path d="M178 78L118 109.585V124.019L178 92.2597V78Z" fill="#005FBE"/>
<path d="M177.469 78L118 109.829L28.5303 62.0449L88.001 30.2832L177.469 78Z" fill="#0080FF" stroke="black" stroke-width="0.5"/>
<path d="M88.5 40.25C91.9051 40.25 94.9774 41.2442 97.1924 42.8389C99.4077 44.4339 100.75 46.6155 100.75 49C100.75 51.3845 99.4077 53.5661 97.1924 55.1611C94.9774 56.7558 91.9051 57.75 88.5 57.75C85.0949 57.75 82.0226 56.7558 79.8076 55.1611C77.5923 53.5661 76.25 51.3845 76.25 49C76.25 46.6155 77.5923 44.4339 79.8076 42.8389C82.0226 41.2442 85.0949 40.25 88.5 40.25Z" fill="#005FBE" stroke="black" stroke-width="0.5"/>
<mask id="path-43-inside-9_288_29463" fill="white">
<path d="M76 41H101V49H76V41Z"/>
</mask>
<path d="M76 41H101V49H76V41Z" fill="#005FBE"/>
<path d="M101 41H100.5V49H101H101.5V41H101ZM76 49H76.5V41H76H75.5V49H76Z" fill="black" mask="url(#path-43-inside-9_288_29463)"/>
<path d="M88.5 33.25C91.9051 33.25 94.9774 34.2442 97.1924 35.8389C99.4077 37.4339 100.75 39.6155 100.75 42C100.75 44.3845 99.4077 46.5661 97.1924 48.1611C94.9774 49.7558 91.9051 50.75 88.5 50.75C85.0949 50.75 82.0226 49.7558 79.8076 48.1611C77.5923 46.5661 76.25 44.3845 76.25 42C76.25 39.6155 77.5923 37.4339 79.8076 35.8389C82.0226 34.2442 85.0949 33.25 88.5 33.25Z" fill="#169AFF" stroke="black" stroke-width="0.5"/>
<path d="M88.5 70.25C91.9051 70.25 94.9774 71.2442 97.1924 72.8389C99.4077 74.4339 100.75 76.6155 100.75 79C100.75 81.3845 99.4077 83.5661 97.1924 85.1611C94.9774 86.7558 91.9051 87.75 88.5 87.75C85.0949 87.75 82.0226 86.7558 79.8076 85.1611C77.5923 83.5661 76.25 81.3845 76.25 79C76.25 76.6155 77.5923 74.4339 79.8076 72.8389C82.0226 71.2442 85.0949 70.25 88.5 70.25Z" fill="#005FBE" stroke="black" stroke-width="0.5"/>
<mask id="path-47-inside-10_288_29463" fill="white">
<path d="M76 71H101V79H76V71Z"/>
</mask>
<path d="M76 71H101V79H76V71Z" fill="#005FBE"/>
<path d="M101 71H100.5V79H101H101.5V71H101ZM76 79H76.5V71H76H75.5V79H76Z" fill="black" mask="url(#path-47-inside-10_288_29463)"/>
<path d="M88.5 63.25C91.9051 63.25 94.9774 64.2442 97.1924 65.8389C99.4077 67.4339 100.75 69.6155 100.75 72C100.75 74.3845 99.4077 76.5661 97.1924 78.1611C94.9774 79.7558 91.9051 80.75 88.5 80.75C85.0949 80.75 82.0226 79.7558 79.8076 78.1611C77.5923 76.5661 76.25 74.3845 76.25 72C76.25 69.6155 77.5923 67.4339 79.8076 65.8389C82.0226 64.2442 85.0949 63.25 88.5 63.25Z" fill="#169AFF" stroke="black" stroke-width="0.5"/>
<path d="M117.5 86.25C120.905 86.25 123.977 87.2442 126.192 88.8389C128.408 90.4339 129.75 92.6155 129.75 95C129.75 97.3845 128.408 99.5661 126.192 101.161C123.977 102.756 120.905 103.75 117.5 103.75C114.095 103.75 111.023 102.756 108.808 101.161C106.592 99.5661 105.25 97.3845 105.25 95C105.25 92.6155 106.592 90.4339 108.808 88.8389C111.023 87.2442 114.095 86.25 117.5 86.25Z" fill="#005FBE" stroke="black" stroke-width="0.5"/>
<mask id="path-51-inside-11_288_29463" fill="white">
<path d="M105 87H130V95H105V87Z"/>
</mask>
<path d="M105 87H130V95H105V87Z" fill="#005FBE"/>
<path d="M130 87H129.5V95H130H130.5V87H130ZM105 95H105.5V87H105H104.5V95H105Z" fill="black" mask="url(#path-51-inside-11_288_29463)"/>
<path d="M117.5 79.25C120.905 79.25 123.977 80.2442 126.192 81.8389C128.408 83.4339 129.75 85.6155 129.75 88C129.75 90.3845 128.408 92.5661 126.192 94.1611C123.977 95.7558 120.905 96.75 117.5 96.75C114.095 96.75 111.023 95.7558 108.808 94.1611C106.592 92.5661 105.25 90.3845 105.25 88C105.25 85.6155 106.592 83.4339 108.808 81.8389C111.023 80.2442 114.095 79.25 117.5 79.25Z" fill="#169AFF" stroke="black" stroke-width="0.5"/>
<path d="M117.5 55.25C120.905 55.25 123.977 56.2442 126.192 57.8389C128.408 59.4339 129.75 61.6155 129.75 64C129.75 66.3845 128.408 68.5661 126.192 70.1611C123.977 71.7558 120.905 72.75 117.5 72.75C114.095 72.75 111.023 71.7558 108.808 70.1611C106.592 68.5661 105.25 66.3845 105.25 64C105.25 61.6155 106.592 59.4339 108.808 57.8389C111.023 56.2442 114.095 55.25 117.5 55.25Z" fill="#005FBE" stroke="black" stroke-width="0.5"/>
<mask id="path-55-inside-12_288_29463" fill="white">
<path d="M105 56H130V64H105V56Z"/>
</mask>
<path d="M105 56H130V64H105V56Z" fill="#005FBE"/>
<path d="M130 56H129.5V64H130H130.5V56H130ZM105 64H105.5V56H105H104.5V64H105Z" fill="black" mask="url(#path-55-inside-12_288_29463)"/>
<path d="M117.5 48.25C120.905 48.25 123.977 49.2442 126.192 50.8389C128.408 52.4339 129.75 54.6155 129.75 57C129.75 59.3845 128.408 61.5661 126.192 63.1611C123.977 64.7558 120.905 65.75 117.5 65.75C114.095 65.75 111.023 64.7558 108.808 63.1611C106.592 61.5661 105.25 59.3845 105.25 57C105.25 54.6155 106.592 52.4339 108.808 50.8389C111.023 49.2442 114.095 48.25 117.5 48.25Z" fill="#169AFF" stroke="black" stroke-width="0.5"/>
<path d="M146.5 70.25C149.905 70.25 152.977 71.2442 155.192 72.8389C157.408 74.4339 158.75 76.6155 158.75 79C158.75 81.3845 157.408 83.5661 155.192 85.1611C152.977 86.7558 149.905 87.75 146.5 87.75C143.095 87.75 140.023 86.7558 137.808 85.1611C135.592 83.5661 134.25 81.3845 134.25 79C134.25 76.6155 135.592 74.4339 137.808 72.8389C140.023 71.2442 143.095 70.25 146.5 70.25Z" fill="#005FBE" stroke="black" stroke-width="0.5"/>
<mask id="path-59-inside-13_288_29463" fill="white">
<path d="M134 71H159V79H134V71Z"/>
</mask>
<path d="M134 71H159V79H134V71Z" fill="#005FBE"/>
<path d="M159 71H158.5V79H159H159.5V71H159ZM134 79H134.5V71H134H133.5V79H134Z" fill="black" mask="url(#path-59-inside-13_288_29463)"/>
<path d="M146.5 63.25C149.905 63.25 152.977 64.2442 155.192 65.8389C157.408 67.4339 158.75 69.6155 158.75 72C158.75 74.3845 157.408 76.5661 155.192 78.1611C152.977 79.7558 149.905 80.75 146.5 80.75C143.095 80.75 140.023 79.7558 137.808 78.1611C135.592 76.5661 134.25 74.3845 134.25 72C134.25 69.6155 135.592 67.4339 137.808 65.8389C140.023 64.2442 143.095 63.25 146.5 63.25Z" fill="#169AFF" stroke="black" stroke-width="0.5"/>
<path d="M58.5 55.25C61.9051 55.25 64.9774 56.2442 67.1924 57.8389C69.4077 59.4339 70.75 61.6155 70.75 64C70.75 66.3845 69.4077 68.5661 67.1924 70.1611C64.9774 71.7558 61.9051 72.75 58.5 72.75C55.0949 72.75 52.0226 71.7558 49.8076 70.1611C47.5923 68.5661 46.25 66.3845 46.25 64C46.25 61.6155 47.5923 59.4339 49.8076 57.8389C52.0226 56.2442 55.0949 55.25 58.5 55.25Z" fill="#005FBE" stroke="black" stroke-width="0.5"/>
<mask id="path-63-inside-14_288_29463" fill="white">
<path d="M46 56H71V64H46V56Z"/>
</mask>
<path d="M46 56H71V64H46V56Z" fill="#005FBE"/>
<path d="M71 56H70.5V64H71H71.5V56H71ZM46 64H46.5V56H46H45.5V64H46Z" fill="black" mask="url(#path-63-inside-14_288_29463)"/>
<path d="M58.5 48.25C61.9051 48.25 64.9774 49.2442 67.1924 50.8389C69.4077 52.4339 70.75 54.6155 70.75 57C70.75 59.3845 69.4077 61.5661 67.1924 63.1611C64.9774 64.7558 61.9051 65.75 58.5 65.75C55.0949 65.75 52.0226 64.7558 49.8076 63.1611C47.5923 61.5661 46.25 59.3845 46.25 57C46.25 54.6155 47.5923 52.4339 49.8076 50.8389C52.0226 49.2442 55.0949 48.25 58.5 48.25Z" fill="#169AFF" stroke="black" stroke-width="0.5"/>
<path d="M208.001 208.649L148.001 240.695L148.001 255.344L208.001 223.756V208.649Z" fill="#005FBE"/>
<path d="M118.001 225.13L148.001 240.695V255.344L118.001 239.55V225.13Z" fill="#006DDA"/>
<path d="M118.537 225.126L147.998 240.412L207.464 208.652L178.003 193.367L118.537 225.126Z" fill="#0080FF" stroke="black" stroke-width="0.5"/>
<path d="M177.501 202.25C174.096 202.25 171.024 203.244 168.809 204.839C166.593 206.434 165.251 208.616 165.251 211C165.251 213.384 166.593 215.566 168.809 217.161C171.024 218.756 174.096 219.75 177.501 219.75C180.906 219.75 183.978 218.756 186.193 217.161C188.409 215.566 189.751 213.384 189.751 211C189.751 208.616 188.409 206.434 186.193 204.839C183.978 203.244 180.906 202.25 177.501 202.25Z" fill="#005FBE" stroke="black" stroke-width="0.5"/>
<mask id="path-70-inside-15_288_29463" fill="white">
<path d="M190.001 203H165.001V211H190.001V203Z"/>
</mask>
<path d="M190.001 203H165.001V211H190.001V203Z" fill="#005FBE"/>
<path d="M165.001 203H165.501V211H165.001H164.501V203H165.001ZM190.001 211H189.501V203H190.001H190.501V211H190.001Z" fill="black" mask="url(#path-70-inside-15_288_29463)"/>
<path d="M177.501 195.25C174.096 195.25 171.024 196.244 168.809 197.839C166.593 199.434 165.251 201.616 165.251 204C165.251 206.384 166.593 208.566 168.809 210.161C171.024 211.756 174.096 212.75 177.501 212.75C180.906 212.75 183.978 211.756 186.193 210.161C188.409 208.566 189.751 206.384 189.751 204C189.751 201.616 188.409 199.434 186.193 197.839C183.978 196.244 180.906 195.25 177.501 195.25Z" fill="#169AFF" stroke="black" stroke-width="0.5"/>
<path d="M148.501 218.25C145.096 218.25 142.024 219.244 139.809 220.839C137.593 222.434 136.251 224.616 136.251 227C136.251 229.384 137.593 231.566 139.809 233.161C142.024 234.756 145.096 235.75 148.501 235.75C151.906 235.75 154.978 234.756 157.193 233.161C159.409 231.566 160.751 229.384 160.751 227C160.751 224.616 159.409 222.434 157.193 220.839C154.978 219.244 151.906 218.25 148.501 218.25Z" fill="#005FBE" stroke="black" stroke-width="0.5"/>
<mask id="path-74-inside-16_288_29463" fill="white">
<path d="M161.001 219H136.001V227H161.001V219Z"/>
</mask>
<path d="M161.001 219H136.001V227H161.001V219Z" fill="#005FBE"/>
<path d="M136.001 219H136.501V227H136.001H135.501V219H136.001ZM161.001 227H160.501V219H161.001H161.501V227H161.001Z" fill="black" mask="url(#path-74-inside-16_288_29463)"/>
<path d="M148.501 211.25C145.096 211.25 142.024 212.244 139.809 213.839C137.593 215.434 136.251 217.616 136.251 220C136.251 222.384 137.593 224.566 139.809 226.161C142.024 227.756 145.096 228.75 148.501 228.75C151.906 228.75 154.978 227.756 157.193 226.161C159.409 224.566 160.751 222.384 160.751 220C160.751 217.616 159.409 215.434 157.193 213.839C154.978 212.244 151.906 211.25 148.501 211.25Z" fill="#169AFF" stroke="black" stroke-width="0.5"/>
<path d="M118 182.116L148 198.171V239.629L118 222.81V182.116Z" fill="#006DDA"/>
<path d="M208 166.187L148 198.162V238.902L208 207.142V166.187Z" fill="#005FBE"/>
<path d="M207.471 166.185L148.001 197.947L118.528 182.046L178 150.283L207.471 166.185Z" fill="#0080FF" stroke="black" stroke-width="0.5"/>
<path d="M150.5 174.055C153.91 174.055 156.985 174.967 159.201 176.427C161.419 177.889 162.75 179.881 162.75 182.045C162.75 184.21 161.419 186.202 159.201 187.664C156.985 189.124 153.91 190.036 150.5 190.036C147.09 190.036 144.015 189.124 141.799 187.664C139.581 186.202 138.25 184.21 138.25 182.045C138.25 179.881 139.581 177.889 141.799 176.427C144.015 174.967 147.09 174.055 150.5 174.055Z" fill="#005FBE" stroke="black" stroke-width="0.5"/>
<mask id="path-81-inside-17_288_29463" fill="white">
<path d="M138 174.721H163V182.045H138V174.721Z"/>
</mask>
<path d="M138 174.721H163V182.045H138V174.721Z" fill="#005FBE"/>
<path d="M163 174.721H162.5V182.045H163H163.5V174.721H163ZM138 182.045H138.5V174.721H138H137.5V182.045H138Z" fill="black" mask="url(#path-81-inside-17_288_29463)"/>
<path d="M150.5 167.646C153.91 167.646 156.985 168.558 159.201 170.018C161.419 171.48 162.75 173.472 162.75 175.636C162.75 177.801 161.419 179.793 159.201 181.254C156.985 182.715 153.91 183.627 150.5 183.627C147.09 183.627 144.015 182.715 141.799 181.254C139.581 179.793 138.25 177.801 138.25 175.636C138.25 173.472 139.581 171.48 141.799 170.018C144.015 168.558 147.09 167.646 150.5 167.646Z" fill="#169AFF" stroke="black" stroke-width="0.5"/>
<path d="M177.5 159.406C180.91 159.406 183.985 160.317 186.201 161.778C188.419 163.24 189.75 165.232 189.75 167.396C189.75 169.561 188.419 171.552 186.201 173.014C183.985 174.475 180.91 175.386 177.5 175.386C174.09 175.386 171.015 174.475 168.799 173.014C166.581 171.552 165.25 169.561 165.25 167.396C165.25 165.232 166.581 163.24 168.799 161.778C171.015 160.317 174.09 159.406 177.5 159.406Z" fill="#005FBE" stroke="black" stroke-width="0.5"/>
<mask id="path-85-inside-18_288_29463" fill="white">
<path d="M165 160.071H190V167.396H165V160.071Z"/>
</mask>
<path d="M165 160.071H190V167.396H165V160.071Z" fill="#005FBE"/>
<path d="M190 160.071H189.5V167.396H190H190.5V160.071H190ZM165 167.396H165.5V160.071H165H164.5V167.396H165Z" fill="black" mask="url(#path-85-inside-18_288_29463)"/>
<path d="M177.5 152.997C180.91 152.997 183.985 153.908 186.201 155.369C188.419 156.831 189.75 158.822 189.75 160.987C189.75 163.152 188.419 165.143 186.201 166.605C183.985 168.066 180.91 168.977 177.5 168.977C174.09 168.977 171.015 168.066 168.799 166.605C166.581 165.143 165.25 163.152 165.25 160.987C165.25 158.822 166.581 156.831 168.799 155.369C171.015 153.908 174.09 152.997 177.5 152.997Z" fill="#169AFF" stroke="black" stroke-width="0.5"/>
<path d="M148.259 124L178.259 140.055V181.513L148.259 165.694V124Z" fill="#006DDA"/>
<path d="M207.5 123.745L178.001 139.597V181.5L207.5 165.7V123.745Z" fill="#005FBE"/>
<path d="M206.979 124.001L177.999 140.003L148.526 124.102L177.999 108.2L206.979 124.001Z" fill="#0080FF" stroke="black" stroke-width="0.5"/>
<path d="M177.5 117.321C180.91 117.321 183.985 118.233 186.201 119.693C188.419 121.155 189.75 123.147 189.75 125.312C189.75 127.476 188.419 129.468 186.201 130.93C183.985 132.39 180.91 133.302 177.5 133.302C174.09 133.302 171.015 132.39 168.799 130.93C166.581 129.468 165.25 127.476 165.25 125.312C165.25 123.147 166.581 121.155 168.799 119.693C171.015 118.233 174.09 117.321 177.5 117.321Z" fill="#005FBE" stroke="black" stroke-width="0.5"/>
<mask id="path-92-inside-19_288_29463" fill="white">
<path d="M165 117.987H190V125.312H165V117.987Z"/>
</mask>
<path d="M165 117.987H190V125.312H165V117.987Z" fill="#005FBE"/>
<path d="M190 117.987H189.5V125.312H190H190.5V117.987H190ZM165 125.312H165.5V117.987H165H164.5V125.312H165Z" fill="black" mask="url(#path-92-inside-19_288_29463)"/>
<path d="M177.5 110.912C180.91 110.912 183.985 111.824 186.201 113.284C188.419 114.746 189.75 116.738 189.75 118.903C189.75 121.067 188.419 123.059 186.201 124.521C183.985 125.981 180.91 126.893 177.5 126.893C174.09 126.893 171.015 125.981 168.799 124.521C166.581 123.059 165.25 121.067 165.25 118.903C165.25 116.738 166.581 114.746 168.799 113.284C171.015 111.824 174.09 110.912 177.5 110.912Z" fill="#169AFF" stroke="black" stroke-width="0.5"/>
<path d="M118.259 140L148.259 156.055V197.513L118.259 181.694V140Z" fill="#006DDA"/>
<path d="M177.5 139.745L148.001 155.597V197.5L177.5 181.7V139.745Z" fill="#005FBE"/>
<path d="M176.979 140.001L147.999 156.003L118.526 140.102L147.999 124.2L176.979 140.001Z" fill="#0080FF" stroke="black" stroke-width="0.5"/>
<path d="M147.5 133.321C150.91 133.321 153.985 134.233 156.201 135.693C158.419 137.155 159.75 139.147 159.75 141.312C159.75 143.476 158.419 145.468 156.201 146.93C153.985 148.39 150.91 149.302 147.5 149.302C144.09 149.302 141.015 148.39 138.799 146.93C136.581 145.468 135.25 143.476 135.25 141.312C135.25 139.147 136.581 137.155 138.799 135.693C141.015 134.233 144.09 133.321 147.5 133.321Z" fill="#005FBE" stroke="black" stroke-width="0.5"/>
<mask id="path-99-inside-20_288_29463" fill="white">
<path d="M135 133.987H160V141.312H135V133.987Z"/>
</mask>
<path d="M135 133.987H160V141.312H135V133.987Z" fill="#005FBE"/>
<path d="M160 133.987H159.5V141.312H160H160.5V133.987H160ZM135 141.312H135.5V133.987H135H134.5V141.312H135Z" fill="black" mask="url(#path-99-inside-20_288_29463)"/>
<path d="M147.5 126.912C150.91 126.912 153.985 127.824 156.201 129.284C158.419 130.746 159.75 132.738 159.75 134.903C159.75 137.067 158.419 139.059 156.201 140.521C153.985 141.981 150.91 142.893 147.5 142.893C144.09 142.893 141.015 141.981 138.799 140.521C136.581 139.059 135.25 137.067 135.25 134.903C135.25 132.738 136.581 130.746 138.799 129.284C141.015 127.824 144.09 126.912 147.5 126.912Z" fill="#169AFF" stroke="black" stroke-width="0.5"/>
<path d="M78.9995 1.52973C84.9489 0.508282 89.8329 1.22468 90.9995 1.52987L88.9995 6.45155L66.9987 21.5587C55.1653 25.0684 27.4995 34.4909 35.4987 25.221C40.7681 19.1145 71.0004 2.9031 78.9995 1.52973Z" fill="#0080FF"/>
<path d="M90.5 49.1401V63.2178L60.5 47.6529V78.4094L30 61.9289V38.9549C30 21.0095 50.8333 16.6369 61 16.1791V34.033L90.5 49.1401Z" fill="#006DDA"/>
<path d="M90.4453 18.2699L61 34.8348L90.5 49.1401L120.5 33.4908L90.4453 18.2699Z" fill="#0080FF" stroke="black" stroke-width="0.5"/>
<path d="M90.869 1.07172L90.5004 19.2696L61 34.8763V16.4L90.869 1.07172Z" fill="#005FBE"/>
<path d="M61 77L61 49" stroke="black" stroke-width="0.5"/>
<path d="M88 26.7726C91.4098 26.7726 94.4854 27.684 96.7012 29.1447C98.9189 30.6066 100.25 32.5983 100.25 34.7628C100.25 36.9274 98.9189 38.919 96.7012 40.381C94.4854 41.8416 91.4098 42.7531 88 42.7531C84.5902 42.7531 81.5146 41.8416 79.2988 40.381C77.0811 38.919 75.75 36.9274 75.75 34.7628C75.75 32.5983 77.0811 30.6066 79.2988 29.1447C81.5146 27.684 84.5902 26.7726 88 26.7726Z" fill="#005FBE" stroke="black" stroke-width="0.5"/>
<mask id="path-108-inside-21_288_29463" fill="white">
<path d="M75.5 27.4381H100.5V34.7628H75.5V27.4381Z"/>
</mask>
<path d="M75.5 27.4381H100.5V34.7628H75.5V27.4381Z" fill="#005FBE"/>
<path d="M100.5 27.4381H100V34.7628H100.5H101V27.4381H100.5ZM75.5 34.7628H76V27.4381H75.5H75V34.7628H75.5Z" fill="black" mask="url(#path-108-inside-21_288_29463)"/>
<path d="M88 20.3635C91.4098 20.3635 94.4854 21.275 96.7012 22.7356C98.9189 24.1975 100.25 26.1892 100.25 28.3537C100.25 30.5183 98.9189 32.5099 96.7012 33.9719C94.4854 35.4325 91.4098 36.344 88 36.344C84.5902 36.344 81.5146 35.4325 79.2988 33.9719C77.0811 32.5099 75.75 30.5183 75.75 28.3537C75.75 26.1892 77.0811 24.1975 79.2988 22.7356C81.5146 21.275 84.5902 20.3635 88 20.3635Z" fill="#169AFF" stroke="black" stroke-width="0.5"/>
<path d="M48.9995 16.5297C54.9489 15.5083 59.8329 16.2247 60.9995 16.5299L58.9995 21.4516L36.9987 36.5587C25.1653 40.0684 -2.50049 49.4909 5.49866 40.221C10.7681 34.1145 41.0004 17.9031 48.9995 16.5297Z" fill="#0080FF"/>
<path d="M60.5 64.1401V78.2178L30.5 62.6529V93.4094L0 76.9289V53.9549C0 36.0095 20.8333 31.6369 31 31.1791V49.033L60.5 64.1401Z" fill="#006DDA"/>
<path d="M60.4453 33.2699L31 49.8348L60.5 64.1401L90.5 48.4908L60.4453 33.2699Z" fill="#0080FF" stroke="black" stroke-width="0.5"/>
<path d="M60.869 16.0717L60.5004 34.2696L31 49.8763V31.4L60.869 16.0717Z" fill="#005FBE"/>
<path d="M31 92L31 64" stroke="black" stroke-width="0.5"/>
<path d="M58 41.7726C61.4098 41.7726 64.4854 42.684 66.7012 44.1447C68.9189 45.6066 70.25 47.5983 70.25 49.7628C70.25 51.9274 68.9189 53.919 66.7012 55.381C64.4854 56.8416 61.4098 57.7531 58 57.7531C54.5902 57.7531 51.5146 56.8416 49.2988 55.381C47.0811 53.919 45.75 51.9274 45.75 49.7628C45.75 47.5983 47.0811 45.6066 49.2988 44.1447C51.5146 42.684 54.5902 41.7726 58 41.7726Z" fill="#005FBE" stroke="black" stroke-width="0.5"/>
<mask id="path-117-inside-22_288_29463" fill="white">
<path d="M45.5 42.4381H70.5V49.7628H45.5V42.4381Z"/>
</mask>
<path d="M45.5 42.4381H70.5V49.7628H45.5V42.4381Z" fill="#005FBE"/>
<path d="M70.5 42.4381H70V49.7628H70.5H71V42.4381H70.5ZM45.5 49.7628H46V42.4381H45.5H45V49.7628H45.5Z" fill="black" mask="url(#path-117-inside-22_288_29463)"/>
<path d="M58 35.3635C61.4098 35.3635 64.4854 36.275 66.7012 37.7356C68.9189 39.1975 70.25 41.1892 70.25 43.3537C70.25 45.5183 68.9189 47.5099 66.7012 48.9719C64.4854 50.4325 61.4098 51.344 58 51.344C54.5902 51.344 51.5146 50.4325 49.2988 48.9719C47.0811 47.5099 45.75 45.5183 45.75 43.3537C45.75 41.1892 47.0811 39.1975 49.2988 37.7356C51.5146 36.275 54.5902 35.3635 58 35.3635Z" fill="#169AFF" stroke="black" stroke-width="0.5"/>
<path d="M147.001 48.6493L87.001 80.6947L87.001 95.344L147.001 63.7564V48.6493Z" fill="#005FBE"/>
<path d="M57.001 65.1299L87.001 80.6948V95.3441L57.001 79.5503V65.1299Z" fill="#006DDA"/>
<path d="M57.5371 65.1264L86.998 80.4116L146.464 48.6518L117.003 33.3666L57.5371 65.1264Z" fill="#0080FF" stroke="black" stroke-width="0.5"/>
<path d="M116.501 42.25C113.096 42.25 110.024 43.2442 107.809 44.8389C105.593 46.4339 104.251 48.6155 104.251 51C104.251 53.3845 105.593 55.5661 107.809 57.1611C110.024 58.7558 113.096 59.75 116.501 59.75C119.906 59.75 122.978 58.7558 125.193 57.1611C127.409 55.5661 128.751 53.3845 128.751 51C128.751 48.6155 127.409 46.4339 125.193 44.8389C122.978 43.2442 119.906 42.25 116.501 42.25Z" fill="#005FBE" stroke="black" stroke-width="0.5"/>
<mask id="path-124-inside-23_288_29463" fill="white">
<path d="M129.001 43H104.001V51H129.001V43Z"/>
</mask>
<path d="M129.001 43H104.001V51H129.001V43Z" fill="#005FBE"/>
<path d="M104.001 43H104.501V51H104.001H103.501V43H104.001ZM129.001 51H128.501V43H129.001H129.501V51H129.001Z" fill="black" mask="url(#path-124-inside-23_288_29463)"/>
<path d="M116.501 35.25C113.096 35.25 110.024 36.2442 107.809 37.8389C105.593 39.4339 104.251 41.6155 104.251 44C104.251 46.3845 105.593 48.5661 107.809 50.1611C110.024 51.7558 113.096 52.75 116.501 52.75C119.906 52.75 122.978 51.7558 125.193 50.1611C127.409 48.5661 128.751 46.3845 128.751 44C128.751 41.6155 127.409 39.4339 125.193 37.8389C122.978 36.2442 119.906 35.25 116.501 35.25Z" fill="#169AFF" stroke="black" stroke-width="0.5"/>
<path d="M87.501 58.25C84.0959 58.25 81.0235 59.2442 78.8086 60.8389C76.5933 62.4339 75.251 64.6155 75.251 67C75.251 69.3845 76.5933 71.5661 78.8086 73.1611C81.0235 74.7558 84.0959 75.75 87.501 75.75C90.9061 75.75 93.9784 74.7558 96.1934 73.1611C98.4087 71.5661 99.751 69.3845 99.751 67C99.751 64.6155 98.4087 62.4339 96.1934 60.8389C93.9784 59.2442 90.9061 58.25 87.501 58.25Z" fill="#005FBE" stroke="black" stroke-width="0.5"/>
<mask id="path-128-inside-24_288_29463" fill="white">
<path d="M100.001 59H75.001V67H100.001V59Z"/>
</mask>
<path d="M100.001 59H75.001V67H100.001V59Z" fill="#005FBE"/>
<path d="M75.001 59H75.501V67H75.001H74.501V59H75.001ZM100.001 67H99.501V59H100.001H100.501V67H100.001Z" fill="black" mask="url(#path-128-inside-24_288_29463)"/>
<path d="M87.501 51.25C84.0959 51.25 81.0235 52.2442 78.8086 53.8389C76.5933 55.4339 75.251 57.6155 75.251 60C75.251 62.3845 76.5933 64.5661 78.8086 66.1611C81.0235 67.7558 84.0959 68.75 87.501 68.75C90.9061 68.75 93.9784 67.7558 96.1934 66.1611C98.4087 64.5661 99.751 62.3845 99.751 60C99.751 57.6155 98.4087 55.4339 96.1934 53.8389C93.9784 52.2442 90.9061 51.25 87.501 51.25Z" fill="#169AFF" stroke="black" stroke-width="0.5"/>
<path d="M147.819 48.2486L118 63.7624L150.912 82.3063L175.723 62.9991L147.819 48.2486Z" fill="#0080FF"/>
<path d="M147.875 57.7705C144.421 57.7705 141.305 58.6943 139.061 60.1739C136.815 61.6547 135.465 63.6719 135.465 65.8653C135.465 68.0587 136.815 70.0768 139.061 71.5576C141.305 73.0371 144.421 73.96 147.875 73.96C151.328 73.9599 154.444 73.0372 156.688 71.5576C158.934 70.0768 160.283 68.0587 160.283 65.8653C160.283 63.672 158.934 61.6547 156.688 60.1739C154.444 58.6943 151.328 57.7706 147.875 57.7705Z" fill="#005FBE" stroke="black" stroke-width="0.5"/>
<mask id="path-133-inside-25_288_29463" fill="white">
<path d="M160.533 58.4477H135.216V65.8653H160.533V58.4477Z"/>
</mask>
<path d="M160.533 58.4477H135.216V65.8653H160.533V58.4477Z" fill="#005FBE"/>
<path d="M135.216 58.4477H135.716V65.8653H135.216H134.716V58.4477H135.216ZM160.533 65.8653H160.033V58.4477H160.533H161.033V65.8653H160.533Z" fill="black" mask="url(#path-133-inside-25_288_29463)"/>
<path d="M147.875 51.2802C144.421 51.2802 141.305 52.2039 139.061 53.6835C136.815 55.1644 135.465 57.1815 135.465 59.3749C135.465 61.5683 136.815 63.5864 139.061 65.0673C141.305 66.5467 144.421 67.4696 147.875 67.4696C151.328 67.4696 154.444 66.5468 156.688 65.0673C158.934 63.5864 160.283 61.5683 160.283 59.3749C160.283 57.1817 158.934 55.1643 156.688 53.6835C154.444 52.204 151.328 51.2802 147.875 51.2802Z" fill="#169AFF" stroke="black" stroke-width="0.5"/>
<path d="M207.622 124.712L177.746 140.504L177 138.5C175.987 121.192 167.216 91.6413 167.621 85.3364C168.026 79.0315 159.014 73.6555 147.874 64.8472C153.31 61.911 169.646 53.5632 179.773 48.0001C193.951 56.3448 207.622 62.3716 207.622 85.3364V124.712Z" fill="url(#paint0_linear_288_29463)"/>
<path d="M148 95.072L118.001 79.3097L118 63.7624L147.819 79.9883V64.6896C163.065 70.7164 177.749 79.3097 177.749 99.708V140.491L148 124.5V95.072Z" fill="#006DDA"/>
<path d="M118.819 63.2486L89 78.7624L121.912 97.3063L146.723 77.9991L118.819 63.2486Z" fill="#0080FF"/>
<path d="M118.875 72.7705C115.421 72.7705 112.305 73.6943 110.061 75.1739C107.815 76.6547 106.465 78.6719 106.465 80.8653C106.465 83.0587 107.815 85.0768 110.061 86.5576C112.305 88.0371 115.421 88.96 118.875 88.96C122.328 88.9599 125.444 88.0372 127.688 86.5576C129.934 85.0768 131.283 83.0587 131.283 80.8653C131.283 78.672 129.934 76.6547 127.688 75.1739C125.444 73.6943 122.328 72.7706 118.875 72.7705Z" fill="#005FBE" stroke="black" stroke-width="0.5"/>
<mask id="path-140-inside-26_288_29463" fill="white">
<path d="M131.533 73.4477H106.216V80.8653H131.533V73.4477Z"/>
</mask>
<path d="M131.533 73.4477H106.216V80.8653H131.533V73.4477Z" fill="#005FBE"/>
<path d="M106.216 73.4477H106.716V80.8653H106.216H105.716V73.4477H106.216ZM131.533 80.8653H131.033V73.4477H131.533H132.033V80.8653H131.533Z" fill="black" mask="url(#path-140-inside-26_288_29463)"/>
<path d="M118.875 66.2802C115.421 66.2802 112.305 67.2039 110.061 68.6835C107.815 70.1644 106.465 72.1815 106.465 74.3749C106.465 76.5683 107.815 78.5864 110.061 80.0673C112.305 81.5467 115.421 82.4696 118.875 82.4696C122.328 82.4696 125.444 81.5468 127.688 80.0673C129.934 78.5864 131.283 76.5683 131.283 74.3749C131.283 72.1817 129.934 70.1643 127.688 68.6835C125.444 67.204 122.328 66.2802 118.875 66.2802Z" fill="#169AFF" stroke="black" stroke-width="0.5"/>
<path d="M178.622 139.712L148.746 155.504L148 153.5C146.987 136.192 138.216 106.641 138.621 100.336C139.026 94.0315 130.014 88.6555 118.874 79.8472C124.31 76.911 140.646 68.5632 150.773 63.0001C164.951 71.3448 178.622 77.3716 178.622 100.336V139.712Z" fill="url(#paint1_linear_288_29463)"/>
<path d="M119 110.072L89.0007 94.3097L89 78.7624L118.819 94.9883V79.6896C134.065 85.7164 148.749 94.3097 148.749 114.708V155.491L119 139.5V110.072Z" fill="#006DDA"/>
<path d="M32 32.0454L122 79.8854V96.1362L32 48.5259V32.0454Z" fill="#006DDA"/>
<path d="M181.471 47.0059L121.998 79.8281L32.5303 32.0449L92.002 0.282227L181.471 47.0059Z" fill="#1391F6" stroke="black" stroke-width="0.5"/>
<defs>
<linearGradient id="paint0_linear_288_29463" x1="171" y1="58" x2="229" y2="141" gradientUnits="userSpaceOnUse">
<stop stop-color="#169AFF"/>
<stop offset="0.567308" stop-color="#005FBE"/>
</linearGradient>
<linearGradient id="paint1_linear_288_29463" x1="148.748" y1="63.0001" x2="148.748" y2="161.067" gradientUnits="userSpaceOnUse">
<stop stop-color="#169AFF"/>
<stop offset="0.567308" stop-color="#005FBE"/>
</linearGradient>
</defs>
</svg>
