<svg width="1917" height="271" viewBox="0 0 1917 271" fill="none" xmlns="http://www.w3.org/2000/svg">
<path d="M1563.88 222.512C1563.88 217.194 1562.02 212.635 1558.3 208.837L1557.57 208.107C1553.9 204.51 1549.51 202.654 1544.41 202.538L1543.9 202.533C1538.32 202.533 1533.59 204.512 1529.72 208.472L1529.36 208.837C1525.73 212.635 1523.92 217.194 1523.92 222.512C1523.92 228.092 1525.85 232.817 1529.72 236.687C1533.47 240.436 1538.02 242.37 1543.38 242.487L1543.9 242.493C1549.39 242.493 1554.07 240.557 1557.94 236.687C1561.9 232.817 1563.88 228.092 1563.88 222.512ZM1564.59 36.8568L1557.56 188.927H1530.1L1522.79 36.8568H1564.59ZM1525.94 39.8568L1532.96 185.927H1554.7L1561.45 39.8568H1525.94ZM1566.88 222.512C1566.88 228.881 1564.58 234.373 1560.06 238.808L1560.06 238.809C1555.62 243.243 1550.18 245.493 1543.9 245.493C1537.54 245.493 1532.04 243.254 1527.6 238.809C1523.15 234.364 1520.92 228.87 1520.92 222.512C1520.92 216.229 1523.17 210.785 1527.6 206.351C1532.03 201.825 1537.53 199.533 1543.9 199.533C1550 199.533 1555.31 201.701 1559.66 205.957L1560.45 206.745C1564.71 211.097 1566.88 216.404 1566.88 222.512Z" fill="black"/>
<path d="M1418.24 201.857V126.693H1384.35V92.3422H1401.12V95.3422H1387.35V123.693H1421.24V201.857L1421.24 202.654C1421.32 210.836 1422.67 217.455 1425.29 222.512C1427.99 227.732 1431.54 231.692 1435.95 234.392C1440.36 237.092 1445.22 238.937 1450.53 239.927C1455.51 240.855 1460.41 241.349 1465.23 241.407L1466.19 241.413C1470.33 241.412 1474.02 241.097 1477.26 240.467C1480.5 239.837 1482.98 239.208 1484.69 238.578V210.767C1483.43 211.307 1481.49 211.847 1478.88 212.387C1476.36 212.927 1473.66 213.198 1470.78 213.198V210.198C1473.47 210.198 1475.96 209.944 1478.25 209.454L1478.26 209.452L1478.27 209.45C1480.83 208.92 1482.53 208.428 1483.5 208.01L1487.69 206.218V240.669L1485.72 241.392C1483.79 242.105 1481.13 242.772 1477.83 243.413C1474.36 244.087 1470.48 244.412 1466.19 244.413C1460.87 244.413 1455.46 243.898 1449.98 242.876C1444.33 241.822 1439.12 239.85 1434.38 236.951C1429.45 233.927 1425.54 229.529 1422.62 223.891C1419.62 218.096 1418.24 210.684 1418.24 201.857ZM1456.88 191.057V123.693H1499.54V95.3422H1456.88V48.0922H1421.24V70.9076L1421.23 73.0424C1421.18 77.8852 1420.96 81.7635 1420.56 84.6772L1420.49 85.2748C1420.1 88.2121 1419.31 90.3981 1418.13 91.8324L1417.89 92.1127C1416.62 93.4839 1414.72 94.3802 1412.19 94.8022C1409.49 95.1622 1405.8 95.3422 1401.12 95.3422V92.3422C1405.72 92.3422 1409.24 92.1638 1411.75 91.8334C1413.97 91.4545 1415.17 90.7087 1415.82 89.9252C1416.54 89.0494 1417.25 87.3438 1417.58 84.3461L1417.58 84.3109L1417.59 84.2758C1418.01 81.1415 1418.24 76.7058 1418.24 70.9076V45.0922H1459.88V92.3422H1502.54V126.693H1459.88V191.057C1459.88 197.516 1460.67 202.448 1462.09 206.008C1462.64 207.379 1463.52 208.35 1464.79 209.027C1466.14 209.738 1468.07 210.198 1470.78 210.198V213.198L1470.22 213.192C1464.7 213.073 1461.11 211.174 1459.46 207.496L1459.31 207.122C1457.69 203.072 1456.88 197.717 1456.88 191.057Z" fill="black"/>
<path d="M1365.13 95.3422H1330.03V238.712H1365.13V95.3422ZM1368.91 51.1977C1368.91 45.8792 1366.92 41.7005 1362.95 38.6625L1362.56 38.3725C1358.46 35.4081 1353.69 33.8792 1348.24 33.7865L1347.71 33.7826C1341.95 33.7826 1336.91 35.3125 1332.59 38.3725C1328.36 41.4325 1326.25 45.7077 1326.25 51.1977L1326.25 51.7172C1326.38 57.0491 1328.49 61.2409 1332.59 64.2924C1336.78 67.2567 1341.64 68.7847 1347.17 68.8773L1347.71 68.8822C1353.2 68.8822 1358.02 67.4463 1362.16 64.5746L1362.56 64.2924C1366.66 61.2409 1368.77 57.0491 1368.9 51.7172L1368.91 51.1977ZM1368.13 241.712H1327.03V92.3422H1368.13V241.712ZM1371.91 51.1977C1371.91 57.6611 1369.39 62.9453 1364.35 66.6986L1364.34 66.7104L1364.32 66.7231C1359.53 70.1854 1353.96 71.8822 1347.71 71.8822C1341.39 71.8822 1335.73 70.1916 1330.86 66.7406L1330.83 66.7201L1330.8 66.6986C1325.76 62.9453 1323.25 57.6611 1323.25 51.1977C1323.25 44.8037 1325.78 39.5993 1330.83 35.9418L1330.85 35.933L1330.86 35.9242C1335.73 32.4733 1341.39 30.7826 1347.71 30.7826C1353.96 30.7826 1359.53 32.4795 1364.32 35.9418C1369.38 39.5993 1371.91 44.8036 1371.91 51.1977Z" fill="black"/>
<path d="M1228.26 27.7074H1192.62V112.319C1188.75 108.231 1184.36 104.725 1179.47 101.803L1178.58 101.283C1169.34 95.877 1159.29 93.0893 1148.45 92.9203L1147.4 92.9125C1135.88 92.9125 1125.08 95.7474 1115 101.417C1105.01 107.087 1096.91 115.412 1090.7 126.392C1084.58 137.372 1081.51 150.782 1081.51 166.622L1081.52 168.142C1081.71 183.768 1084.72 196.986 1090.56 207.797C1096.59 218.957 1104.6 227.417 1114.59 233.177C1124.35 238.67 1134.92 241.503 1146.29 241.674L1147.4 241.682C1158.73 241.682 1169.01 238.895 1178.23 233.321L1179.12 232.772C1184.17 229.595 1188.67 225.814 1192.62 221.428V238.712H1228.26V27.7074ZM1118.24 166.622C1118.24 151.592 1121.88 140.612 1129.17 133.682C1136.46 126.662 1145.28 123.153 1155.63 123.153L1156.22 123.157C1162.3 123.249 1168.04 124.778 1173.45 127.743C1179.12 130.713 1183.71 134.853 1187.22 140.163C1190.81 145.456 1192.61 151.644 1192.62 158.727V173.507C1192.62 180.707 1190.87 187.097 1187.36 192.677L1187.03 193.189C1183.65 198.436 1179.26 202.586 1173.86 205.637L1173.33 205.928C1167.89 208.884 1161.99 210.363 1155.63 210.363V207.363C1161.7 207.363 1167.26 205.914 1172.38 203.025C1177.52 200.124 1181.65 196.159 1184.81 191.091L1184.82 191.079C1187.9 186.18 1189.52 180.56 1189.62 174.132L1189.62 173.507V158.792L1189.62 158.178C1189.51 151.865 1187.86 146.457 1184.74 141.846L1184.72 141.817C1181.49 136.932 1177.28 133.136 1172.06 130.4L1172.03 130.386L1172.01 130.372C1166.87 127.552 1161.42 126.153 1155.63 126.153C1146.04 126.153 1137.97 129.375 1131.25 135.843L1131.24 135.857C1124.78 141.992 1121.24 152.009 1121.24 166.622C1121.24 181.132 1124.78 191.222 1131.26 197.549C1137.98 204.103 1146.05 207.363 1155.63 207.363V210.363L1154.66 210.352C1145.05 210.144 1136.78 206.811 1129.86 200.354L1129.17 199.698C1122.11 192.81 1118.47 182.247 1118.25 168.011L1118.24 166.622ZM1231.26 241.712H1189.62V228.633C1186.86 231.086 1183.9 233.314 1180.72 235.312C1170.77 241.567 1159.63 244.682 1147.4 244.682C1135.1 244.682 1123.66 241.72 1113.12 235.792L1113.11 235.785L1113.09 235.776C1102.57 229.711 1094.19 220.822 1087.92 209.223C1081.6 197.518 1078.51 183.272 1078.51 166.622C1078.51 150.402 1081.65 136.46 1088.07 124.932L1088.08 124.923L1088.08 124.915C1094.53 113.511 1103.01 104.772 1113.51 98.808L1113.52 98.8022C1124.05 92.8807 1135.36 89.9125 1147.4 89.9125C1159.16 89.9126 1170.07 92.8355 1180.08 98.682C1183.49 100.646 1186.67 102.875 1189.62 105.365V24.7074H1231.26V241.712Z" fill="black"/>
<path d="M1052.68 95.3422H1017.58V238.712H1052.68V95.3422ZM1056.46 51.1977C1056.46 45.8792 1054.47 41.7005 1050.5 38.6625L1050.11 38.3725C1046.01 35.4081 1041.24 33.8792 1035.79 33.7865L1035.26 33.7826C1029.5 33.7826 1024.46 35.3125 1020.14 38.3725C1015.91 41.4325 1013.8 45.7077 1013.8 51.1977L1013.8 51.7172C1013.93 57.0491 1016.04 61.2409 1020.14 64.2924C1024.33 67.2567 1029.19 68.7847 1034.72 68.8773L1035.26 68.8822C1040.75 68.8822 1045.57 67.4463 1049.71 64.5746L1050.11 64.2924C1054.21 61.2409 1056.32 57.0491 1056.45 51.7172L1056.46 51.1977ZM1055.68 241.712H1014.58V92.3422H1055.68V241.712ZM1059.46 51.1977C1059.46 57.6611 1056.94 62.9453 1051.9 66.6986L1051.89 66.7104L1051.87 66.7231C1047.08 70.1854 1041.5 71.8822 1035.26 71.8822C1028.94 71.8822 1023.28 70.1916 1018.41 66.7406L1018.38 66.7201L1018.35 66.6986C1013.31 62.9453 1010.8 57.6611 1010.8 51.1977C1010.8 44.8037 1013.33 39.5993 1018.38 35.9418L1018.39 35.933L1018.41 35.9242C1023.28 32.4733 1028.94 30.7826 1035.26 30.7826C1041.5 30.7826 1047.08 32.4795 1051.87 35.9418C1056.93 39.5993 1059.46 44.8036 1059.46 51.1977Z" fill="black"/>
<path d="M983.309 27.7074H947.669V112.319C943.795 108.231 939.412 104.725 934.518 101.803L933.629 101.283C924.387 95.877 914.343 93.0893 903.496 92.9203L902.444 92.9125C890.924 92.9125 880.124 95.7474 870.044 101.417C860.054 107.087 851.954 115.412 845.744 126.392C839.624 137.372 836.563 150.782 836.563 166.622L836.572 168.142C836.755 183.768 839.767 196.986 845.608 207.797C851.638 218.957 859.649 227.417 869.639 233.177C879.404 238.67 889.971 241.503 901.341 241.674L902.444 241.682C913.778 241.682 924.057 238.895 933.279 233.321L934.169 232.772C939.222 229.595 943.722 225.814 947.669 221.428V238.712H983.309V27.7074ZM873.284 166.622C873.284 151.592 876.929 140.612 884.219 133.682C891.509 126.662 900.329 123.153 910.679 123.153L911.269 123.157C917.35 123.249 923.093 124.778 928.499 127.743C934.169 130.713 938.759 134.853 942.269 140.163C945.858 145.456 947.658 151.644 947.669 158.727V173.507C947.669 180.707 945.914 187.097 942.404 192.677L942.08 193.189C938.702 198.436 934.31 202.586 928.904 205.637L928.379 205.928C922.943 208.884 917.043 210.363 910.679 210.363V207.363C916.746 207.363 922.311 205.914 927.429 203.025C932.567 200.124 936.7 196.159 939.857 191.091L939.864 191.079C942.946 186.18 944.566 180.56 944.664 174.132L944.669 173.507V158.792L944.664 158.178C944.564 151.865 942.912 146.457 939.786 141.846L939.767 141.817C936.538 136.932 932.33 133.136 927.106 130.4L927.081 130.386L927.057 130.372C921.914 127.552 916.469 126.153 910.679 126.153C901.085 126.153 893.017 129.375 886.3 135.843L886.286 135.857C879.833 141.992 876.284 152.009 876.284 166.622C876.284 181.132 879.826 191.222 886.313 197.549C893.033 204.103 901.097 207.363 910.679 207.363V210.363L909.713 210.352C900.1 210.144 891.831 206.811 884.907 200.354L884.219 199.698C877.157 192.81 873.516 182.247 873.295 168.011L873.284 166.622ZM986.309 241.712H944.669V228.633C941.911 231.086 938.944 233.314 935.766 235.312C925.814 241.567 914.68 244.682 902.444 244.682C890.15 244.682 878.706 241.72 868.168 235.792L868.154 235.785L868.141 235.776C857.622 229.711 849.237 220.822 842.97 209.223C836.645 197.518 833.563 183.272 833.563 166.622C833.563 150.402 836.698 136.46 843.123 124.932L843.128 124.923L843.133 124.915C849.583 113.511 858.056 104.772 868.563 98.808L868.573 98.8022C879.1 92.8807 890.407 89.9125 902.444 89.9125C914.209 89.9126 925.122 92.8355 935.125 98.682C938.538 100.646 941.719 102.875 944.669 105.365V24.7074H986.309V241.712Z" fill="black"/>
<path d="M590.194 167.432C590.194 152.134 593.537 138.593 600.32 126.911L600.325 126.903L600.329 126.895C606.969 115.616 616.092 106.751 627.645 100.33L628.77 99.7172C640.872 93.1534 654.691 89.9125 670.145 89.9125C686.031 89.9125 699.919 93.1465 711.696 99.7397C723.524 106.311 732.665 115.492 739.061 127.245L739.65 128.344C745.654 139.762 748.609 152.91 748.609 167.703C748.609 169.639 748.563 171.706 748.472 173.902C748.381 176.08 748.241 177.831 748.021 179.038L747.573 181.502H632.76C633.526 184.776 634.564 187.8 635.865 190.581L636.158 191.187C639.227 197.386 643.583 202.119 649.239 205.471C655.166 208.841 662.495 210.602 671.359 210.602V213.602C662.09 213.602 654.214 211.758 647.734 208.068C641.344 204.288 636.484 198.888 633.154 191.868C631.27 187.845 629.921 183.389 629.103 178.502H745.069L745.135 178.104C745.24 177.394 745.328 176.455 745.398 175.288L745.475 173.778C745.542 172.158 745.585 170.613 745.602 169.145L745.609 167.703C745.609 152.853 742.55 139.847 736.43 128.687C730.31 117.437 721.579 108.663 710.239 102.363C699.341 96.2597 686.458 93.112 671.59 92.9213L670.145 92.9125C655.115 92.9125 641.795 96.0627 630.185 102.363L629.104 102.952C618.009 109.117 609.28 117.606 602.915 128.417L602.316 129.469C596.235 140.392 593.194 153.046 593.194 167.432C593.194 181.922 596.389 194.792 602.779 206.042C609.259 217.292 618.259 226.068 629.779 232.368C640.939 238.471 653.916 241.617 668.708 241.808L670.145 241.818C681.13 241.818 690.933 240.55 699.554 238.016L700.385 237.767C709.016 235.064 716.381 231.517 722.479 227.125L723.064 226.698C729.274 222.018 734.09 216.842 737.51 211.172C741.02 205.412 743.045 199.518 743.585 193.488H708.215C707.945 195.828 707.045 198.167 705.515 200.507C704.075 202.847 701.869 205.052 698.899 207.122C696.019 209.102 692.284 210.677 687.694 211.847C683.104 213.017 677.659 213.602 671.359 213.602V210.602C677.486 210.602 682.671 210.032 686.954 208.94C691.042 207.898 694.268 206.553 696.72 204.97L697.2 204.65C699.926 202.748 701.795 200.828 702.96 198.935L702.981 198.9L703.004 198.866C704.326 196.843 705.027 194.941 705.234 193.143L705.541 190.488H746.865L746.573 193.755C745.988 200.293 743.793 206.626 740.071 212.734C736.422 218.779 731.33 224.225 724.87 229.093L724.859 229.102L724.848 229.11C718.32 233.935 710.445 237.761 701.281 240.63L701.272 240.633L701.263 240.636C692.102 243.44 681.717 244.818 670.145 244.818C654.338 244.818 640.372 241.579 628.34 234.999C616.342 228.438 606.938 219.273 600.18 207.539L600.176 207.532L600.171 207.524C593.495 195.77 590.194 182.378 590.194 167.432ZM671.363 120.727C679.728 120.83 686.657 122.539 692.149 125.852C697.819 129.182 702.05 133.592 704.84 139.082C707.139 143.532 708.49 148.257 708.895 153.257H629.429C630.284 149.136 631.571 145.356 633.29 141.917C636.69 135.291 641.4 130.186 647.418 126.6L648.005 126.257C654.395 122.567 661.91 120.722 670.55 120.722L671.363 120.727ZM670.55 123.722C662.346 123.722 655.366 125.47 649.505 128.855L649.493 128.862C643.729 132.156 639.22 136.932 635.959 143.287C634.88 145.449 633.978 147.771 633.258 150.257H705.49C704.89 146.84 703.786 143.577 702.175 140.459L702.165 140.442C699.653 135.498 695.841 131.499 690.631 128.439L690.615 128.43L690.601 128.421C685.525 125.36 678.903 123.722 670.55 123.722Z" fill="black"/>
<path d="M392.864 36.5873L411.85 193.61L442.271 36.5873H492.042L522.334 193.533L541.312 36.5873H584.315L553.164 241.712H493.531L467.155 93.1742L440.779 241.712H380.873L350 36.5873H392.864ZM353.485 39.5873L383.455 238.712H438.266L467.155 76.0141L496.045 238.712H550.585L580.825 39.5873H543.971L523.016 212.89L489.565 39.5873H444.745L411.163 212.926L390.205 39.5873H353.485Z" fill="black"/>
</svg>
